<?xml version="1.0" encoding="utf-8"?>
<!DOCTYPE svg PUBLIC "-//W3C//DTD SVG 1.1//EN" "http://www.w3.org/Graphics/SVG/1.1/DTD/svg11.dtd">
<svg version="1.1" id="Layer_1" xmlns="http://www.w3.org/2000/svg" xmlns:xlink="http://www.w3.org/1999/xlink" x="0px" y="0px"
	 width="100%" height="100%" viewBox="0 0 270.79 45.354" xml:space="preserve" preserveAspectRatio="xMinYMin none">
<g id="Embleme">
	<g>
		<g>
			<linearGradient id="SVGID_1_" gradientUnits="userSpaceOnUse" x1="22.6772" y1="-1.1157" x2="22.6772" y2="46.761">
				<stop  offset="0" style="stop-color:#00774A"/>
				<stop  offset="0.6" style="stop-color:#8CCAAE"/>
				<stop  offset="1" style="stop-color:#00975F"/>
			</linearGradient>
			<rect fill="url(#SVGID_1_)" width="45.354" height="45.354"/>
			<linearGradient id="SVGID_2_" gradientUnits="userSpaceOnUse" x1="22.606" y1="-11.2671" x2="22.606" y2="42.5337">
				<stop  offset="0" style="stop-color:#00975F"/>
				<stop  offset="0.3" style="stop-color:#8CCAAE"/>
				<stop  offset="0.55" style="stop-color:#00975F"/>
				<stop  offset="0.8352" style="stop-color:#00774A"/>
				<stop  offset="0.8691" style="stop-color:#007C4E"/>
				<stop  offset="0.9244" style="stop-color:#00895A"/>
				<stop  offset="0.9938" style="stop-color:#009E6E"/>
				<stop  offset="1" style="stop-color:#00A070"/>
			</linearGradient>
			<path fill="url(#SVGID_2_)" d="M43.953,22.939c0,9.467,0.438,19.16,0.438,19.16c-0.017,1.087-0.714,1.782-1.591,1.782H3.543
				c-0.879,0-1.486-0.782-1.59-1.782c0,0-1.133-8.275-1.133-20.924C0.82,8.533,1.953,2.58,1.953,2.58
				c0.136-1.039,0.711-1.783,1.59-1.783H42.8c0.877,0,1.611,0.814,1.591,1.783C44.391,2.58,43.953,13.473,43.953,22.939z"/>
			<g>
				<g>
					<linearGradient id="SVGID_3_" gradientUnits="userSpaceOnUse" x1="31.2236" y1="39.5635" x2="31.2236" y2="4.748">
						<stop  offset="0" style="stop-color:#00A97C"/>
						<stop  offset="1" style="stop-color:#00975F"/>
					</linearGradient>
					<path fill="url(#SVGID_3_)" d="M35.22,12.248c-2.805,1.643-3.661,1.773-6.704,3.602l0.148-0.338
						c1.597-1.742,2.292-2.477,3.342-4.016c-2.813,0.152-6.889,0.488-9.806,1.131l0,0l0,0l0,0l0.154-0.313
						C25,11.027,29.911,9.748,32.415,9.418c-0.61-0.859-5.587-3.551-6.825-4.07l0,0l0,0l0,0l0.145-0.314
						c3.771,0.426,8.768,2.189,10.946,3.525c0.92-0.291,1.86-0.318,3.566-0.467c0,0-0.252,1.029-2.112,2.305l0,0l0,0l0,0
						c0.461,1.236-0.647,8.076-1.56,9.891l0,0l0,0l0,0C36.534,17.426,36.279,13.814,35.22,12.248z"/>
					<linearGradient id="SVGID_4_" gradientUnits="userSpaceOnUse" x1="9.6226" y1="39.5645" x2="9.6226" y2="4.7384">
						<stop  offset="0" style="stop-color:#00A97C"/>
						<stop  offset="1" style="stop-color:#00975F"/>
					</linearGradient>
					<path fill="url(#SVGID_4_)" d="M14.727,36.767l0.143-0.316c-1.489-0.578-2.979-1.034-4.185-2.17l0,0l0,0l0,0l0,0l0,0l0,0l0,0
						l0,0l0,0l0,0l0,0l0,0l0,0l0,0l0,0l0,0l0,0l0,0l0,0l0,0l0,0l0,0l0,0l0,0l0,0l0,0l0,0l0,0l0,0l0,0l0,0
						c0.38-1.055,0.813-1.881,1.521-2.926l0,0l0,0l0,0l0,0l0,0l0,0l0,0l0,0l0,0l0,0l0,0l0,0l0,0l0,0l0,0l0,0l0,0l0,0l0,0l0,0l0,0
						l0,0l0,0l0,0l0,0l0,0l0,0l0,0l0,0l0,0l0,0l0.149-0.32c-1.279,0.192-2.44,0.661-3.547,0.877l0,0l0,0l0,0l0,0l0,0l0,0l0,0l0,0
						l0,0l0,0l0,0l0,0l0,0l0,0l0,0l0,0l0,0l0,0l0,0l0,0l0,0l0,0l0,0l0,0l0,0l0,0l0,0l0,0l0,0l0,0l0,0
						c-0.873-1.534-1.212-3.633-1.651-5.631l-0.146,0.318l0,0l0,0l0,0l0,0l0,0l0,0l0,0l0,0l0,0l0,0l0,0l0,0l0,0l0,0l0,0
						c-0.247,2.279-0.347,3.909-0.021,5.73l0,0l0,0l0,0l0,0l0,0l0,0l0,0l0,0l0,0l0,0l0,0l0,0l0,0l0,0l0,0l0,0l0,0l0,0l0,0l0,0l0,0
						l0,0l0,0l0,0l0,0l0,0l0,0l0,0l0,0l0,0l0,0c-0.922,0.256-1.73,0.292-2.474,0.608L4.376,33.25l0,0l0,0l0,0l0,0l0,0l0,0l0,0l0,0
						l0,0l0,0l0,0l0,0l0,0l0,0l0,0l0,0l0,0l0,0l0,0l0,0l0,0l0,0l0,0l0,0l0,0l0,0l0,0l0,0l0,0l0,0l0,0
						c1.183,0.729,2.146,1.288,3.483,1.913l0,0l0,0l0,0l0,0l0,0l0,0l0,0l0,0l0,0l0,0l0,0l0,0l0,0l0,0l0,0l0,0l0,0l0,0l0,0l0,0l0,0
						l0,0l0,0l0,0l0,0l0,0l0,0l0,0l0,0l0,0l0,0c0.715,1.537,1.455,2.573,2.653,3.757l0,0l0,0l0,0l0,0l0,0l0,0l0,0l0,0l0,0l0,0l0,0
						l0,0l0,0l0,0l0,0l0,0l0,0l0,0l0,0l0,0l0,0l0,0l0,0l0,0l0,0l0,0l0,0l0,0l0,0l0,0l0,0l0.146-0.316
						c-0.216-0.874-0.495-1.596-0.39-2.551l0,0l0,0l0,0l0,0l0,0l0,0l0,0l0,0l0,0l0,0l0,0l0,0l0,0l0,0l0,0l0,0l0,0l0,0l0,0l0,0l0,0
						l0,0l0,0l0,0l0,0l0,0l0,0l0,0l0,0l0,0l0,0C11.756,36.486,13.032,36.715,14.727,36.767z"/>
					<linearGradient id="SVGID_5_" gradientUnits="userSpaceOnUse" x1="16.3516" y1="39.5547" x2="16.3516" y2="4.7546">
						<stop  offset="0" style="stop-color:#00A97C"/>
						<stop  offset="1" style="stop-color:#00975F"/>
					</linearGradient>
					<path fill="url(#SVGID_5_)" d="M18.862,13.988c0,0-0.599,1.063-1.078,2.473H17.67l0,0l0,0c3.492,0.471,6.791,1.885,7.619,2.373
						l-0.147,0.313l0,0l0,0l0,0l0,0l0,0l0,0l0,0c-3.625-0.637-5.534-0.566-6.885-0.445l0,0l0,0l0,0
						C16.91,18.832,16.635,19,16.635,19l0,0l0,0l0,0l0,0l0,0l0,0l0,0c-0.777,1.699-1.233,4.477-1.418,5.499l-0.146,0.318l0,0l0,0
						l0,0l0,0l0,0l0,0l0,0c-0.664-1.593-1.619-4.776-1.619-4.776l0,0l0,0l0,0l0,0l0,0l0,0l0,0c-1.826,0.98-6.038,4.933-6.038,4.933
						l0,0l0,0l0,0l0,0l0,0l0,0l0,0c2.322-4.628,4.668-6.743,4.668-6.743l0,0l0,0l0,0l0,0l0,0l0,0l0,0
						c-0.811-0.813-2.926-1.227-4.471-1.293l0,0l0,0l0,0l0.143-0.313c0.971-0.285,2.969-0.404,4.309-0.467l0,0l0,0l0,0l0,0l0,0l0,0
						l0,0c1.585-0.047,2.543,0.043,2.543,0.043l0,0l0,0l0,0C16.016,15.078,18.122,14.092,18.862,13.988z"/>
					<linearGradient id="SVGID_6_" gradientUnits="userSpaceOnUse" x1="22.1694" y1="39.5615" x2="22.1694" y2="4.7464">
						<stop  offset="0" style="stop-color:#00A97C"/>
						<stop  offset="1" style="stop-color:#00975F"/>
					</linearGradient>
					<path fill="url(#SVGID_6_)" d="M23.307,33.891c-0.732,0.993-1.358,1.775-2.166,2.684l0,0l0,0l0,0l0,0l0,0l0,0l0,0l0,0l0,0l0,0
						l0,0l0,0l0,0l0,0l0,0l0,0l0,0l0,0l0,0l0,0l0,0l0,0l0,0l0,0l0,0l0,0l0,0l0,0l0,0l0,0l0,0c-1.193,0.331-2.625,0.181-3.728,0.221
						l-0.145,0.316l0,0l0,0l0,0l0,0l0,0l0,0l0,0l0,0l0,0l0,0l0,0l0,0l0,0l0,0l0,0l0,0l0,0l0,0l0,0l0,0l0,0l0,0l0,0l0,0l0,0l0,0l0,0
						l0,0l0,0l0,0l0,0c0.83,0.427,1.643,0.688,2.512,0.867l0,0l0,0l0,0l0,0l0,0l0,0l0,0l0,0l0,0l0,0l0,0l0,0l0,0l0,0l0,0l0,0l0,0
						l0,0l0,0l0,0l0,0l0,0l0,0l0,0l0,0l0,0l0,0l0,0l0,0l0,0l0,0c-0.704,0.641-1.646,1.129-2.306,1.575l-0.146,0.312l0,0l0,0l0,0l0,0
						l0,0l0,0l0,0l0,0l0,0l0,0l0,0l0,0l0,0l0,0l0,0l0,0l0,0l0,0l0,0l0,0l0,0l0,0l0,0l0,0l0,0l0,0l0,0l0,0l0,0l0,0l0,0
						c1.417-0.335,3.282-0.937,4.672-1.757l0,0l0,0l0,0l0,0l0,0l0,0l0,0l0,0l0,0l0,0l0,0l0,0l0,0l0,0l0,0l0,0l0,0l0,0l0,0l0,0l0,0
						l0,0l0,0l0,0l0,0l0,0l0,0l0,0l0,0l0,0l0,0c0.723,0.032,1.398-0.016,1.895-0.114l0,0l0,0l0,0l0,0l0,0l0,0l0,0l0,0l0,0l0,0l0,0
						l0,0l0,0l0,0l0,0l0,0l0,0l0,0l0,0l0,0l0,0l0,0l0,0l0,0l0,0l0,0l0,0l0,0l0,0l0,0l0,0c0,0,0.148-0.323,0.148-0.315
						c-0.091-0.32-0.375-0.516-0.459-0.964l0,0l0,0l0,0l0,0l0,0l0,0l0,0l0,0l0,0l0,0l0,0l0,0l0,0l0,0l0,0l0,0l0,0l0,0l0,0l0,0l0,0
						l0,0l0,0l0,0l0,0l0,0l0,0l0,0l0,0l0,0l0,0c1.303-1.011,2.246-1.932,3.336-3.027l0,0l0,0l0,0l0,0l0,0l0,0l0,0l0,0l0,0l0,0l0,0
						l0,0l0,0l0,0l0,0l0,0l0,0l0,0l0,0l0,0l0,0l0,0l0,0l0,0l0,0l0,0l0,0l0,0l0,0l0,0l0,0l0.15-0.317
						c-1.076,0.742-2.382,1.763-3.641,2.359l0,0l0,0l0,0l0,0l0,0l0,0l0,0l0,0l0,0l0,0l0,0l0,0l0,0l0,0l0,0l0,0l0,0l0,0l0,0l0,0l0,0
						l0,0l0,0l0,0l0,0l0,0l0,0l0,0l0,0l0,0l0,0C23.378,35.111,23.338,34.586,23.307,33.891z"/>
				</g>
				<g>
					<path fill="#FFFFFF" d="M35.364,11.928c-2.799,1.646-3.656,1.785-6.7,3.605c1.772-1.922,2.389-2.74,3.485-4.35
						c-2.806,0.148-6.884,0.486-9.795,1.131l0,0l0,0l0,0c2.534-1.354,7.559-2.859,10.211-3.217c-0.615-0.85-5.593-3.545-6.831-4.064
						l0,0l0,0l0,0c3.94,0.307,8.758,1.779,11.093,3.207c0.919-0.287,1.874-0.301,3.584-0.453l0,0l0,0l0,0
						c-0.436,0.748-0.454,1.18-2.132,2.293l0,0l0,0l0,0c0.465,1.242-0.646,8.078-1.563,9.889l0,0l0,0l0,0
						C36.684,17.109,36.434,13.498,35.364,11.928z"/>
					<path fill="#FFFFFF" d="M14.869,36.45c-1.608-0.597-2.767-1.291-4.042-2.483l0,0l0,0l0,0l0,0l0,0l0,0l0,0l0,0l0,0l0,0l0,0l0,0
						l0,0l0,0l0,0l0,0l0,0l0,0l0,0l0,0l0,0l0,0l0,0l0,0l0,0l0,0l0,0l0,0l0,0l0,0l0,0c0.382-1.054,0.817-1.877,1.528-2.933l0,0l0,0
						l0,0l0,0l0,0l0,0l0,0l0,0l0,0l0,0l0,0l0,0l0,0l0,0l0,0l0,0l0,0l0,0l0,0l0,0l0,0l0,0l0,0l0,0l0,0l0,0l0,0l0,0l0,0l0,0l0,0
						c-1.308,0.195-2.271,0.343-3.398,0.556l0,0l0,0l0,0l0,0l0,0l0,0l0,0l0,0l0,0l0,0l0,0l0,0l0,0l0,0l0,0l0,0l0,0l0,0l0,0l0,0l0,0
						l0,0l0,0l0,0l0,0l0,0l0,0l0,0l0,0l0,0l0,0c-0.917-1.604-1.333-3.153-1.8-5.31l0,0l0,0l0,0l0,0l0,0l0,0l0,0l0,0l0,0l0,0l0,0l0,0
						l0,0l0,0l0,0c-0.25,2.285-0.345,3.917-0.022,5.735l0,0l0,0l0,0l0,0l0,0l0,0l0,0l0,0l0,0l0,0l0,0l0,0l0,0l0,0l0,0l0,0l0,0l0,0
						l0,0l0,0l0,0l0,0l0,0l0,0l0,0l0,0l0,0l0,0l0,0l0,0l0,0c-1.034,0.287-1.767,0.538-2.617,0.922l0,0l0,0l0,0l0,0l0,0l0,0l0,0l0,0
						l0,0l0,0l0,0l0,0l0,0l0,0l0,0l0,0l0,0l0,0l0,0l0,0l0,0l0,0l0,0l0,0l0,0l0,0l0,0l0,0l0,0l0,0l0,0
						c1.192,0.729,2.155,1.291,3.486,1.912l0,0l0,0l0,0l0,0l0,0l0,0l0,0l0,0l0,0l0,0l0,0l0,0l0,0l0,0l0,0l0,0l0,0l0,0l0,0l0,0l0,0
						l0,0l0,0l0,0l0,0l0,0l0,0l0,0l0,0l0,0l0,0c0.716,1.534,1.455,2.571,2.655,3.754l0,0l0,0l0,0l0,0l0,0l0,0l0,0l0,0l0,0l0,0l0,0
						l0,0l0,0l0,0l0,0l0,0l0,0l0,0l0,0l0,0l0,0l0,0l0,0l0,0l0,0l0,0l0,0l0,0l0,0l0,0l0,0c-0.281-1.008-0.355-1.809-0.24-2.866l0,0
						l0,0l0,0l0,0l0,0l0,0l0,0l0,0l0,0l0,0l0,0l0,0l0,0l0,0l0,0l0,0l0,0l0,0l0,0l0,0l0,0l0,0l0,0l0,0l0,0l0,0l0,0l0,0l0,0l0,0l0,0
						C11.906,36.171,13.18,36.398,14.869,36.45z"/>
					<path fill="#FFFFFF" d="M19.057,13.717L19.057,13.717L19.057,13.717L19.057,13.717L19.057,13.717
						c-0.501,0.65-1.082,1.863-1.239,2.426l0,0l0,0l0,0c4.146,0.563,7.472,2.691,7.472,2.691l0,0l0,0l0,0l0,0l0,0l0,0l0,0
						c-3.625-0.643-5.535-0.563-6.888-0.441l0,0l0,0l0,0c-1.344,0.127-1.62,0.285-1.62,0.285l0,0l0,0l0,0l0,0l0,0l0,0l0,0
						c-0.978,2.143-1.564,5.821-1.564,5.821l0,0l0,0l0,0l0,0l0,0l0,0l0,0c-0.659-1.591-1.612-4.774-1.612-4.774l0,0l0,0l0,0l0,0l0,0
						l0,0l0,0c-1.829,0.979-6.036,4.935-6.036,4.935l0,0l0,0l0,0l0,0l0,0l0,0l0,0c2.313-4.632,4.66-6.739,4.66-6.739l0,0l0,0l0,0
						l0,0l0,0l0,0l0,0c-0.808-0.818-2.926-1.227-4.475-1.295l0,0l0,0l0,0c0.804-0.328,2.867-0.713,4.452-0.785l0,0l0,0l0,0l0,0l0,0
						l0,0l0,0c1.587-0.045,2.547,0.045,2.547,0.045l0,0l0,0l0,0C16.168,14.768,18.316,13.826,19.057,13.717z"/>
					<path fill="#FFFFFF" d="M23.454,33.578c-0.731,0.993-1.361,1.772-2.173,2.68l0,0l0,0l0,0l0,0l0,0l0,0l0,0l0,0l0,0l0,0l0,0l0,0
						l0,0l0,0l0,0l0,0l0,0l0,0l0,0l0,0l0,0l0,0l0,0l0,0l0,0l0,0l0,0l0,0l0,0l0,0l0,0c-1.395,0.392-2.508,0.537-3.868,0.537l0,0l0,0
						l0,0l0,0l0,0l0,0l0,0l0,0l0,0l0,0l0,0l0,0l0,0l0,0l0,0l0,0l0,0l0,0l0,0l0,0l0,0l0,0l0,0l0,0l0,0l0,0l0,0l0,0l0,0l0,0l0,0
						c0.835,0.431,1.644,0.688,2.515,0.871l0,0l0,0l0,0l0,0l0,0l0,0l0,0l0,0l0,0l0,0l0,0l0,0l0,0l0,0l0,0l0,0l0,0l0,0l0,0l0,0l0,0
						l0,0l0,0l0,0l0,0l0,0l0,0l0,0l0,0l0,0l0,0c-0.871,0.788-1.607,1.35-2.453,1.888l0,0l0,0l0,0l0,0l0,0l0,0l0,0l0,0l0,0l0,0l0,0
						l0,0l0,0l0,0l0,0l0,0l0,0l0,0l0,0l0,0l0,0l0,0l0,0l0,0l0,0l0,0l0,0l0,0l0,0l0,0l0,0c1.418-0.336,3.281-0.938,4.669-1.758l0,0
						l0,0l0,0l0,0l0,0l0,0l0,0l0,0l0,0l0,0l0,0l0,0l0,0l0,0l0,0l0,0l0,0l0,0l0,0l0,0l0,0l0,0l0,0l0,0l0,0l0,0l0,0l0,0l0,0l0,0l0,0
						c0.725,0.028,1.402-0.019,1.899-0.117l0,0l0,0l0,0l0,0l0,0l0,0l0,0l0,0l0,0l0,0l0,0l0,0l0,0l0,0l0,0l0,0l0,0l0,0l0,0l0,0l0,0
						l0,0l0,0l0,0l0,0l0,0l0,0l0,0l0,0l0,0l0,0c-0.13-0.42-0.209-0.733-0.314-1.28l0,0l0,0l0,0l0,0l0,0l0,0l0,0l0,0l0,0l0,0l0,0l0,0
						l0,0l0,0l0,0l0,0l0,0l0,0l0,0l0,0l0,0l0,0l0,0l0,0l0,0l0,0l0,0l0,0l0,0l0,0l0,0c1.307-1.012,2.255-1.928,3.342-3.028l0,0l0,0
						l0,0l0,0l0,0l0,0l0,0l0,0l0,0l0,0l0,0l0,0l0,0l0,0l0,0l0,0l0,0l0,0l0,0l0,0l0,0l0,0l0,0l0,0l0,0l0,0l0,0l0,0l0,0l0,0l0,0
						c-1.157,0.808-2.155,1.41-3.494,2.043l0,0l0,0l0,0l0,0l0,0l0,0l0,0l0,0l0,0l0,0l0,0l0,0l0,0l0,0l0,0l0,0l0,0l0,0l0,0l0,0l0,0
						l0,0l0,0l0,0l0,0l0,0l0,0l0,0l0,0l0,0l0,0C23.519,34.796,23.485,34.273,23.454,33.578z"/>
				</g>
			</g>
		</g>
	</g>
</g>
<g id="N2__x2B__N1">
	<g>
		<g>
			<path fill="white" d="M228.589,5.229c1.188,0,1.897-0.708,1.897-1.567c0-0.86-0.709-1.568-1.897-1.568s-1.896,0.708-1.896,1.568
				C226.692,4.521,227.4,5.229,228.589,5.229z M55.587,9.75c2.352-0.253,3.085-0.304,5.766-0.354
				c0.051,2.15,0.127,4.957,0.127,6.196c0,1.543-0.051,6.828-0.304,9.281h4.957c-0.279-2.453-0.279-7.738-0.279-9.281
				c0-1.239,0.026-4.046,0.102-6.196c2.706,0.051,3.439,0.102,5.791,0.354V7.171H55.587V9.75z M78.836,17.008l6.5,0.151v-2.681
				l-6.475,0.152c0-1.392,0.025-3.389,0.075-5.058c0.936-0.026,1.467-0.051,2.125-0.051c2.479,0,4.931-0.051,7.385,0.228V7.171
				H74.233c0.126,2.048,0.228,6.727,0.228,8.446c0,1.542-0.025,6.803-0.253,9.255h14.719V22.32
				c-3.313,0.202-6.627,0.228-9.964,0.277C78.887,20.777,78.861,18.551,78.836,17.008z M103.921,15.188
				c2.251-0.582,3.742-2.149,3.742-3.921c0-2.933-3.338-4.096-6.499-4.096h-9.079c0.228,2.326,0.253,5.993,0.253,8.421
				c0,3.616-0.051,6.955-0.278,9.281h8.22c4.046,0,8.294-1.264,8.294-4.855C108.573,17.767,106.981,16.124,103.921,15.188z
				 M98.889,22.775c-0.531,0-1.468,0-2.049-0.025c-0.127-2.605-0.127-3.946-0.127-7.157c0-2.731,0.051-3.996,0.152-6.348
				c0.328-0.051,0.986-0.102,1.567-0.102c3.465,0,4.729,0.708,4.729,2.58c0,1.771-2.049,2.428-3.49,2.428h-0.606l-0.986,2.504h0.986
				c2.124,0,4.932,0.834,4.932,3.161C103.997,21.788,102.302,22.775,98.889,22.775z M122.563,9.624
				c0.987-0.076,1.948-0.076,2.808-0.076c1.164,0,4.628,0.102,6.02,0.178V7.171h-13.556c0.152,2.048,0.278,6.727,0.278,8.446
				c0,1.542,0,6.803-0.304,9.255h4.957c-0.228-1.921-0.253-5.412-0.278-7.662l6.171,0.252v-2.756l-6.171,0.101
				C122.513,13.443,122.513,11.343,122.563,9.624z M137.638,7.171c-0.937,2.604-6.879,15.502-7.891,17.702h4.249
				c0.404-1.314,0.859-2.68,1.416-4.172c1.163-0.025,2.175-0.051,3.516-0.051c1.441,0,2.478,0.025,3.489,0.051
				c0.759,1.896,1.341,3.364,1.619,4.172h4.881c-1.366-2.933-7.183-15.881-7.865-17.702H137.638z M138.953,18.424
				c-0.835,0-1.872-0.024-2.631-0.05c0.936-2.251,1.821-4.274,2.631-5.994c0.354,0.835,1.365,3.212,2.528,5.994
				C140.621,18.4,139.762,18.424,138.953,18.424z M166.286,7.076h-4.398c-1.856,2.491-3.382,4.754-6.56,7.957
				c0-2.033,0.101-6.075,0.229-7.957h-4.882c0.153,2.06,0.255,6.763,0.255,8.491c0,1.551-0.025,6.84-0.279,9.306h4.932
				c-0.229-2.135-0.254-6.331-0.254-8.466c1.627,2.059,5.034,6.534,6.203,8.466h5.619c-1.068-1.068-6.966-8.67-7.983-10.042
				C160.464,13.534,165.346,8.067,166.286,7.076z M226.161,7.169c0.126,2.049,0.228,6.727,0.228,8.447
				c0,1.542-0.025,6.803-0.277,9.256h4.905c-0.228-2.454-0.253-7.714-0.253-9.256c0-1.745,0.102-6.398,0.253-8.447H226.161z
				 M167.924,9.75c2.352-0.253,3.085-0.304,5.765-0.354c0.052,2.15,0.128,4.957,0.128,6.196c0,1.543-0.052,6.828-0.304,9.281h4.956
				c-0.278-2.453-0.278-7.738-0.278-9.281c0-1.239,0.026-4.046,0.102-6.196c2.706,0.051,3.439,0.102,5.791,0.354V7.171h-16.159V9.75
				z M194.076,6.817c-5.261,0-9.155,3.718-9.155,9.205c0,5.488,3.895,9.205,9.155,9.205c5.234,0,9.154-3.716,9.154-9.205
				C203.23,10.535,199.311,6.817,194.076,6.817z M194.076,23.028c-2.782,0-4.527-2.453-4.527-7.006c0-4.552,1.745-7.03,4.527-7.03
				s4.501,2.479,4.501,7.03C198.577,20.575,196.858,23.028,194.076,23.028z M222.201,12.304c0-4.097-4.426-5.133-8.144-5.133h-7.713
				c0.228,1.644,0.252,5.336,0.252,8.421c0,3.667-0.05,6.828-0.304,9.281h4.932c-0.277-2.478-0.277-7.713-0.277-9.281
				c0-1.239,0.05-3.996,0.151-6.196c0.379-0.05,1.138-0.101,1.922-0.101c1.543,0,4.628,0.455,4.628,3.009
				c0,2.049-2.175,3.162-3.717,3.162c-0.557,0-1.037-0.051-1.366-0.127c1.922,2.883,4.552,7.334,5.716,9.534h5.285
				c-0.708-0.658-4.981-7.157-5.361-7.915C220.86,16.149,222.201,14.606,222.201,12.304z M250.758,7.171h-4.173l0.177,4.45
				c0.101,2.2,0.152,4.477,0.304,6.677h-0.025c-0.202-0.658-0.455-1.037-1.67-2.807l-5.664-8.32h-4.653
				c0.126,2.022,0.228,6.701,0.228,8.421c0,1.567-0.025,6.828-0.278,9.281h4.122c-0.177-1.366-0.228-4.476-0.228-6.651
				c0-2.402,0.025-3.743,0.025-6.448c0.126,0.455,0.304,0.961,0.961,1.947l7.587,11.152h3.313c-0.277-2.453-0.304-7.713-0.304-9.281
				C250.479,13.873,250.58,9.194,250.758,7.171z M265.96,16.326c0.075,1.518,0.201,4.249,0.228,6.348
				c-0.507,0.126-1.063,0.228-1.645,0.228c-3.287,0-6.247-1.568-6.247-6.752c0-3.11,1.619-6.803,6.222-6.803
				c1.594,0,2.782,0.48,3.743,1.062l1.112-2.959c-1.567-0.379-3.161-0.632-4.779-0.632c-7.03,0-11.279,3.92-11.279,9.281
				c0,5.083,4.021,9.128,10.445,9.128c2.832,0,5.083-0.48,6.803-1.416c0.025-2.124,0.126-5.715,0.228-7.485H265.96z"/>
		</g>
	</g>
	<g>
		<g>
			<g>
				<g>
					<g>
						<path fill="white" d="M65.679,30.966c1.501,0,3.138,0.541,3.138,1.922c0,0.75-0.646,1.426-1.606,1.757c1.275,0.465,2.012,1.201,2.012,2.162
							c0,1.681-2.042,2.251-3.964,2.251h-4.398c0.105-1.051,0.136-2.567,0.136-4.248c0-1.112-0.016-2.793-0.12-3.844H65.679z
							 M64.447,31.987c-0.39,0-0.78,0.029-0.976,0.06c-0.045,1.051-0.06,1.562-0.06,2.763c0,1.455,0,1.997,0.06,3.151h1.171
							c1.381,0,2.041-0.404,2.041-1.245c0-0.932-0.854-1.366-1.981-1.366h-0.675l0.466-1.216h0.495c0.57,0,1.335-0.301,1.335-1.036
							C66.323,32.316,65.618,31.987,64.447,31.987z"/>
						<path fill="white" d="M78.065,30.966c-0.075,0.916-0.12,3.048-0.12,3.844c0,0.734,0.016,3.136,0.12,4.248h-1.906l-3.063-4.52
							c-0.256-0.36-0.436-0.705-0.511-1.11v2.567c0,0.976,0.03,2.357,0.12,3.063h-2.177c0.135-1.231,0.15-3.543,0.15-4.248
							c0-0.766-0.045-2.928-0.105-3.844h2.478l2.582,4.204c0.135,0.209,0.18,0.315,0.24,0.494v-4.698H78.065z"/>
						<path fill="white" d="M83.967,30.966c1.756,0,3.873,0.495,3.873,2.371c0,1.652-1.501,2.478-4.549,2.478c-0.18,0-0.675,0-0.811-0.015
							c0.06,1.127,0.045,2.492,0.12,3.258h-2.657c0.105-1.112,0.135-2.942,0.135-4.248c0-1.156-0.029-3.078-0.135-3.844H83.967z
							 M82.511,32.092c0,0.525-0.03,1.065-0.03,1.592c0,0.39,0.016,0.69,0.03,0.975c0.09,0.016,0.51,0.016,0.78,0.016
							c0.856,0,2.042-0.24,2.042-1.337c0-1.065-1.216-1.261-2.132-1.261C83.081,32.076,82.631,32.076,82.511,32.092z"/>
						<path fill="white" d="M96.595,30.966c1.756,0,3.873,0.495,3.873,2.371c0,1.652-1.501,2.478-4.549,2.478c-0.181,0-0.676,0-0.811-0.015
							c0.06,1.127,0.045,2.492,0.12,3.258h-2.657c0.104-1.112,0.135-2.942,0.135-4.248c0-1.156-0.03-3.078-0.135-3.844H96.595z
							 M95.138,32.092c0,0.525-0.029,1.065-0.029,1.592c0,0.39,0.015,0.69,0.029,0.975c0.091,0.016,0.511,0.016,0.781,0.016
							c0.855,0,2.041-0.24,2.041-1.337c0-1.065-1.215-1.261-2.131-1.261C95.709,32.076,95.258,32.076,95.138,32.092z"/>
						<path fill="white" d="M105.018,30.966c0.3,0.961,2.973,6.786,3.588,8.092h-2.657c-0.104-0.315-0.314-0.752-0.705-1.771
							c-0.406-0.016-0.826-0.016-1.381-0.016c-0.541,0-0.931,0.016-1.367,0.029c-0.24,0.66-0.45,1.187-0.645,1.757h-2.313
							c0.45-1.006,3.107-6.801,3.588-8.092H105.018z M104.793,36.055c-0.315-0.78-0.751-1.757-0.961-2.433
							c-0.226,0.691-0.706,1.757-0.946,2.433c0.3,0.016,0.706,0.031,0.977,0.031C104.237,36.086,104.433,36.07,104.793,36.055z"/>
						<path fill="white" d="M113.576,30.966c1.771,0,3.889,0.63,3.889,2.507c0,1.006-0.751,1.727-1.922,2.191c0.24,0.422,2.206,2.973,2.597,3.394
							h-2.897c-0.51-0.977-1.486-2.658-2.447-4.084c1.156,0.151,2.162-0.404,2.162-1.517c0-1.065-1.231-1.381-1.831-1.381
							c-0.271,0-0.781,0-0.961,0.016c-0.045,0.991-0.061,2.177-0.061,2.718c0,0.705,0,3.017,0.136,4.248h-2.702
							c0.135-1.201,0.165-2.627,0.165-4.248c0-1.366-0.015-3.019-0.135-3.844H113.576z"/>
						<path fill="white" d="M121.789,30.966c-0.06,0.916-0.104,3.078-0.104,3.857c0,0.721,0,3.122,0.104,4.234h-2.672
							c0.136-1.231,0.15-3.543,0.15-4.234c0-0.766-0.045-2.941-0.105-3.857H121.789z"/>
						<path fill="white" d="M128.575,30.966c1.502,0,3.139,0.541,3.139,1.922c0,0.75-0.646,1.426-1.607,1.757
							c1.276,0.465,2.012,1.201,2.012,2.162c0,1.681-2.041,2.251-3.963,2.251h-4.398c0.104-1.051,0.135-2.567,0.135-4.248
							c0-1.112-0.015-2.793-0.12-3.844H128.575z M127.345,31.987c-0.391,0-0.781,0.029-0.976,0.06
							c-0.046,1.051-0.061,1.562-0.061,2.763c0,1.455,0,1.997,0.061,3.151h1.171c1.381,0,2.042-0.404,2.042-1.245
							c0-0.932-0.856-1.366-1.982-1.366h-0.676l0.466-1.216h0.495c0.57,0,1.337-0.301,1.337-1.036
							C129.222,32.316,128.516,31.987,127.345,31.987z"/>
						<path fill="white" d="M137.899,30.966c0.301,0.961,2.973,6.786,3.589,8.092h-2.657c-0.105-0.315-0.315-0.752-0.706-1.771
							c-0.405-0.016-0.825-0.016-1.381-0.016c-0.54,0-0.931,0.016-1.366,0.029c-0.24,0.66-0.45,1.187-0.646,1.757h-2.312
							c0.45-1.006,3.107-6.801,3.587-8.092H137.899z M137.675,36.055c-0.315-0.78-0.75-1.757-0.961-2.433
							c-0.226,0.691-0.706,1.757-0.945,2.433c0.3,0.016,0.705,0.031,0.976,0.031C137.119,36.086,137.314,36.07,137.675,36.055z"/>
						<path fill="white" d="M145.663,30.755c1.036,0,2.041,0.151,2.672,0.346v2.057c-0.886-0.51-1.756-0.945-2.912-0.945
							c-0.916,0-0.976,0.36-0.976,0.631c0,1.366,4.608,1.38,4.608,3.828c0,1.591-1.486,2.596-3.963,2.596
							c-1.111,0-2.162-0.225-2.883-0.48V36.82c1.697,0.796,2.598,1.052,3.378,1.052c0.631,0,1.096-0.286,1.096-0.825
							c0-1.548-4.594-1.396-4.594-4.025C142.09,31.581,143.531,30.755,145.663,30.755z"/>
						<path fill="white" d="M158.155,39.282c-2.522,0-4.414-1.726-4.414-4.264c0-2.551,1.892-4.264,4.414-4.264c2.507,0,4.398,1.713,4.398,4.264
							C162.554,37.557,160.662,39.282,158.155,39.282z M158.155,31.791c-1.171,0-1.906,1.142-1.906,3.228
							c0,2.087,0.735,3.198,1.906,3.198c1.156,0,1.877-1.111,1.877-3.198C160.032,32.933,159.312,31.791,158.155,31.791z"/>
						<path fill="white" d="M167.87,30.966c1.771,0,3.888,0.63,3.888,2.507c0,1.006-0.75,1.727-1.921,2.191c0.24,0.422,2.206,2.973,2.597,3.394
							h-2.897c-0.51-0.977-1.486-2.658-2.447-4.084c1.156,0.151,2.162-0.404,2.162-1.517c0-1.065-1.231-1.381-1.832-1.381
							c-0.27,0-0.78,0-0.96,0.016c-0.045,0.991-0.061,2.177-0.061,2.718c0,0.705,0,3.017,0.136,4.248h-2.702
							c0.135-1.201,0.165-2.627,0.165-4.248c0-1.366-0.015-3.019-0.135-3.844H167.87z"/>
						<path fill="white" d="M180.257,30.966v1.321c-1.186-0.12-1.636-0.18-2.582-0.195c-0.045,0.945-0.061,2.192-0.061,2.718
							c0,0.689,0,3.017,0.15,4.248h-2.717c0.135-1.231,0.15-3.559,0.15-4.248c0-0.512-0.046-1.861-0.046-2.718
							c-0.931,0.016-1.426,0.06-2.612,0.195v-1.321H180.257z"/>
						<path fill="white" d="M184.927,30.966c0.3,0.961,2.972,6.786,3.588,8.092h-2.657c-0.104-0.315-0.315-0.752-0.705-1.771
							c-0.406-0.016-0.826-0.016-1.382-0.016c-0.54,0-0.931,0.016-1.366,0.029c-0.24,0.66-0.45,1.187-0.646,1.757h-2.312
							c0.45-1.006,3.107-6.801,3.588-8.092H184.927z M184.701,36.055c-0.315-0.78-0.75-1.757-0.96-2.433
							c-0.226,0.691-0.706,1.757-0.946,2.433c0.3,0.016,0.706,0.031,0.976,0.031C184.146,36.086,184.341,36.07,184.701,36.055z"/>
						<path fill="white" d="M197.269,30.966c-1.861,2.042-3.183,3.168-3.559,3.543c0.496,0.661,3.438,4.023,3.979,4.549h-3.002
							c-0.54-0.69-2.132-2.688-2.672-3.273c0,1.036,0.029,2.478,0.104,3.273h-2.672c0.135-1.231,0.149-3.543,0.149-4.234
							c0-0.795-0.044-2.941-0.12-3.857h2.643c-0.061,0.841-0.104,2.267-0.104,3.168c0.811-0.766,1.996-1.833,2.837-3.168H197.269z"
							/>
						<path fill="white" d="M205.301,39.058h-6.695c0.12-1.231,0.12-3.543,0.12-4.234c0-0.795-0.045-2.941-0.104-3.857h2.627
							c-0.061,0.916-0.104,3.078-0.104,3.857c0,0.542,0.015,1.937,0.044,3.063h0.946c1.275,0,2.222-0.061,3.167-0.15V39.058z"/>
						<path fill="white" d="M209.206,30.966c-0.06,0.916-0.105,3.078-0.105,3.857c0,0.721,0,3.122,0.105,4.234h-2.672
							c0.135-1.231,0.15-3.543,0.15-4.234c0-0.766-0.046-2.941-0.105-3.857H209.206z"/>
						<path fill="white" d="M219.148,35.125c-0.045,0.795-0.09,2.476-0.12,3.437c-0.87,0.451-2.237,0.705-3.558,0.705
							c-3.003,0-4.925-1.891-4.925-4.217c0-2.447,2.012-4.295,5.3-4.295c0.751,0,1.877,0.12,2.673,0.316l-0.586,1.59
							c-0.556-0.345-1.486-0.63-2.116-0.63c-1.892,0-2.568,1.682-2.568,3.032c0,2.268,1.217,3.002,2.583,3.002
							c0.165,0,0.69-0.014,0.855-0.059c0-0.976-0.016-2.223-0.09-2.882H219.148z"/>
						<path fill="white" d="M223.459,30.966c-0.061,0.916-0.105,3.078-0.105,3.857c0,0.721,0,3.122,0.105,4.234h-2.672
							c0.135-1.231,0.149-3.543,0.149-4.234c0-0.766-0.045-2.941-0.105-3.857H223.459z"/>
					</g>
				</g>
			</g>
			<path d="M218.694,28.152h-1.376c0.02,0.376-0.273,1.102-1.108,1.104c-0.835-0.003-1.128-0.729-1.109-1.104h-1.375
				c0.17,1.3,1.153,2.056,2.479,2.056v0.001c0.002,0,0.003,0,0.005,0s0.003,0,0.005,0v-0.001
				C217.403,30.208,218.524,29.452,218.694,28.152z"/>
		</g>
	</g>
</g>
</svg>
