<?xml version="1.0" encoding="UTF-8" standalone="no"?>
<svg width="329px" height="73px" viewBox="0 0 329 73" version="1.1" xmlns="http://www.w3.org/2000/svg" xmlns:xlink="http://www.w3.org/1999/xlink">
    <!-- Generator: Sketch 44 (41411) - http://www.bohemiancoding.com/sketch -->
    <title>km-logo</title>
    <desc>Created with Sketch.</desc>
    <defs></defs>
    <g id="Page-1" stroke="none" stroke-width="1" fill="none" fill-rule="evenodd">
        <g id="km-logo" transform="translate(-1.000000, -12.000000)">
            <g id="kepenkmarket" fill="#FEDD1C">
                <path d="M3.216,12.728 L3.216,47 L10.032,47 L10.032,38.456 L12.672,35.912 L19.488,47 L27.744,47 L17.328,31.304 L26.688,22.184 L18.624,22.184 L10.032,31.112 L10.032,12.728 L3.216,12.728 Z M46.848,31.928 C46.5279984,30.1999914 45.9600041,28.8880045 45.144,27.992 C44.3279959,27.0959955 43.0880083,26.648 41.424,26.648 C40.3359946,26.648 39.4320036,26.8319982 38.712,27.2 C37.9919964,27.5680018 37.4160022,28.0239973 36.984,28.568 C36.5519978,29.1120027 36.2480009,29.687997 36.072,30.296 C35.8959991,30.904003 35.7920002,31.4479976 35.76,31.928 L46.848,31.928 Z M35.76,36.248 C35.8560005,38.456011 36.4159949,40.055995 37.44,41.048 C38.4640051,42.040005 39.9359904,42.536 41.856,42.536 C43.2320069,42.536 44.415995,42.1920034 45.408,41.504 C46.400005,40.8159966 47.0079989,40.0880038 47.232,39.32 L53.232,39.32 C52.2719952,42.2960149 50.8000099,44.4239936 48.816,45.704 C46.8319901,46.9840064 44.4320141,47.624 41.616,47.624 C39.6639902,47.624 37.9040078,47.3120031 36.336,46.688 C34.7679922,46.0639969 33.4400054,45.1760058 32.352,44.024 C31.2639946,42.8719942 30.424003,41.496008 29.832,39.896 C29.239997,38.295992 28.944,36.5360096 28.944,34.616 C28.944,32.7599907 29.247997,31.032008 29.856,29.432 C30.464003,27.831992 31.3279944,26.4480058 32.448,25.28 C33.5680056,24.1119942 34.9039922,23.1920034 36.456,22.52 C38.0080078,21.8479966 39.7279906,21.512 41.616,21.512 C43.7280106,21.512 45.5679922,21.9199959 47.136,22.736 C48.7040078,23.5520041 49.991995,24.6479931 51,26.024 C52.008005,27.4000069 52.7359978,28.9679912 53.184,30.728 C53.6320022,32.4880088 53.7920006,34.3279904 53.664,36.248 L35.76,36.248 Z M70.224,42.536 C71.3440056,42.536 72.2799962,42.3120022 73.032,41.864 C73.7840038,41.4159978 74.3919977,40.8320036 74.856,40.112 C75.3200023,39.3919964 75.647999,38.5520048 75.84,37.592 C76.032001,36.6319952 76.128,35.656005 76.128,34.664 C76.128,33.671995 76.024001,32.6960048 75.816,31.736 C75.607999,30.7759952 75.2640024,29.9200038 74.784,29.168 C74.3039976,28.4159962 73.6880038,27.8080023 72.936,27.344 C72.1839962,26.8799977 71.2640054,26.648 70.176,26.648 C69.0559944,26.648 68.1200038,26.8799977 67.368,27.344 C66.6159962,27.8080023 66.0080023,28.4079963 65.544,29.144 C65.0799977,29.8800037 64.752001,30.7279952 64.56,31.688 C64.367999,32.6480048 64.272,33.6399949 64.272,34.664 C64.272,35.656005 64.375999,36.6319952 64.584,37.592 C64.792001,38.5520048 65.1279977,39.3919964 65.592,40.112 C66.0560023,40.8320036 66.6719962,41.4159978 67.44,41.864 C68.2080038,42.3120022 69.1359946,42.536 70.224,42.536 Z M57.696,22.184 L64.176,22.184 L64.176,25.352 L64.272,25.352 C65.1040042,24.0079933 66.1599936,23.032003 67.44,22.424 C68.7200064,21.815997 70.1279923,21.512 71.664,21.512 C73.6160098,21.512 75.295993,21.8799963 76.704,22.616 C78.112007,23.3520037 79.2799954,24.3279939 80.208,25.544 C81.1360046,26.7600061 81.8239978,28.1759919 82.272,29.792 C82.7200022,31.4080081 82.944,33.0959912 82.944,34.856 C82.944,36.5200083 82.7200022,38.1199923 82.272,39.656 C81.8239978,41.1920077 81.1440046,42.5519941 80.232,43.736 C79.3199954,44.9200059 78.1840068,45.8639965 76.824,46.568 C75.4639932,47.2720035 73.8720091,47.624 72.048,47.624 C70.5119923,47.624 69.0960065,47.3120031 67.8,46.688 C66.5039935,46.0639969 65.4400042,45.1440061 64.608,43.928 L64.512,43.928 L64.512,55.688 L57.696,55.688 L57.696,22.184 Z M103.728,31.928 C103.407998,30.1999914 102.840004,28.8880045 102.024,27.992 C101.207996,27.0959955 99.9680083,26.648 98.304,26.648 C97.2159946,26.648 96.3120036,26.8319982 95.592,27.2 C94.8719964,27.5680018 94.2960022,28.0239973 93.864,28.568 C93.4319978,29.1120027 93.1280009,29.687997 92.952,30.296 C92.7759991,30.904003 92.6720002,31.4479976 92.64,31.928 L103.728,31.928 Z M92.64,36.248 C92.7360005,38.456011 93.2959949,40.055995 94.32,41.048 C95.3440051,42.040005 96.8159904,42.536 98.736,42.536 C100.112007,42.536 101.295995,42.1920034 102.288,41.504 C103.280005,40.8159966 103.887999,40.0880038 104.112,39.32 L110.112,39.32 C109.151995,42.2960149 107.68001,44.4239936 105.696,45.704 C103.71199,46.9840064 101.312014,47.624 98.496,47.624 C96.5439902,47.624 94.7840078,47.3120031 93.216,46.688 C91.6479922,46.0639969 90.3200054,45.1760058 89.232,44.024 C88.1439946,42.8719942 87.304003,41.496008 86.712,39.896 C86.119997,38.295992 85.824,36.5360096 85.824,34.616 C85.824,32.7599907 86.127997,31.032008 86.736,29.432 C87.344003,27.831992 88.2079944,26.4480058 89.328,25.28 C90.4480056,24.1119942 91.7839922,23.1920034 93.336,22.52 C94.8880078,21.8479966 96.6079906,21.512 98.496,21.512 C100.608011,21.512 102.447992,21.9199959 104.016,22.736 C105.584008,23.5520041 106.871995,24.6479931 107.88,26.024 C108.888005,27.4000069 109.615998,28.9679912 110.064,30.728 C110.512002,32.4880088 110.672001,34.3279904 110.544,36.248 L92.64,36.248 Z M114.576,22.184 L114.576,47 L121.392,47 L121.392,33.992 C121.392,31.4639874 121.807996,29.6480055 122.64,28.544 C123.472004,27.4399945 124.815991,26.888 126.672,26.888 C128.304008,26.888 129.439997,27.391995 130.08,28.4 C130.720003,29.408005 131.04,30.9359898 131.04,32.984 L131.04,47 L137.856,47 L137.856,31.736 C137.856,30.1999923 137.720001,28.8000063 137.448,27.536 C137.175999,26.2719937 136.704003,25.2000044 136.032,24.32 C135.359997,23.4399956 134.440006,22.7520025 133.272,22.256 C132.103994,21.7599975 130.608009,21.512 128.784,21.512 C127.343993,21.512 125.936007,21.8399967 124.56,22.496 C123.183993,23.1520033 122.064004,24.1999928 121.2,25.64 L121.056,25.64 L121.056,22.184 L114.576,22.184 Z M143.664,12.728 L143.664,47 L150.48,47 L150.48,38.456 L153.12,35.912 L159.936,47 L168.192,47 L157.776,31.304 L167.136,22.184 L159.072,22.184 L150.48,31.112 L150.48,12.728 L143.664,12.728 Z M170.784,22.184 L170.784,47 L177.6,47 L177.6,32.6 C177.6,31.3839939 177.775998,30.4000038 178.128,29.648 C178.480002,28.8959962 178.903998,28.320002 179.4,27.92 C179.896002,27.519998 180.407997,27.2480007 180.936,27.104 C181.464003,26.9599993 181.887998,26.888 182.208,26.888 C183.296005,26.888 184.119997,27.0719982 184.68,27.44 C185.240003,27.8080018 185.639999,28.295997 185.88,28.904 C186.120001,29.512003 186.256,30.1759964 186.288,30.896 C186.32,31.6160036 186.336,32.3439963 186.336,33.08 L186.336,47 L193.152,47 L193.152,33.176 C193.152,32.4079962 193.207999,31.6480038 193.32,30.896 C193.432001,30.1439962 193.655998,29.472003 193.992,28.88 C194.328002,28.287997 194.791997,27.8080018 195.384,27.44 C195.976003,27.0719982 196.751995,26.888 197.712,26.888 C198.672005,26.888 199.431997,27.0479984 199.992,27.368 C200.552003,27.6880016 200.975999,28.1199973 201.264,28.664 C201.552001,29.2080027 201.728,29.8479963 201.792,30.584 C201.856,31.3200037 201.888,32.1039958 201.888,32.936 L201.888,47 L208.704,47 L208.704,30.392 C208.704,28.791992 208.480002,27.4240057 208.032,26.288 C207.583998,25.1519943 206.960004,24.2320035 206.16,23.528 C205.359996,22.8239965 204.400006,22.3120016 203.28,21.992 C202.159994,21.6719984 200.944007,21.512 199.632,21.512 C197.903991,21.512 196.408006,21.9279958 195.144,22.76 C193.879994,23.5920042 192.880004,24.5519946 192.144,25.64 C191.471997,24.1039923 190.488006,23.032003 189.192,22.424 C187.895994,21.815997 186.464008,21.512 184.896,21.512 C183.263992,21.512 181.816006,21.8639965 180.552,22.568 C179.287994,23.2720035 178.208004,24.2639936 177.312,25.544 L177.216,25.544 L177.216,22.184 L170.784,22.184 Z M213.792,29.816 C213.888,28.215992 214.287996,26.8880053 214.992,25.832 C215.696004,24.7759947 216.591995,23.9280032 217.68,23.288 C218.768005,22.6479968 219.991993,22.1920014 221.352,21.92 C222.712007,21.6479986 224.079993,21.512 225.456,21.512 C226.704006,21.512 227.967994,21.5999991 229.248,21.776 C230.528006,21.9520009 231.695995,22.2959974 232.752,22.808 C233.808005,23.3200026 234.671997,24.0319954 235.344,24.944 C236.016003,25.8560046 236.352,27.0639925 236.352,28.568 L236.352,41.48 C236.352,42.6000056 236.415999,43.6719949 236.544,44.696 C236.672001,45.7200051 236.895998,46.4879974 237.216,47 L230.304,47 C230.175999,46.6159981 230.072,46.224002 229.992,45.824 C229.912,45.423998 229.856,45.0160021 229.824,44.6 C228.735995,45.7200056 227.456007,46.5039978 225.984,46.952 C224.511993,47.4000022 223.008008,47.624 221.472,47.624 C220.287994,47.624 219.184005,47.4800014 218.16,47.192 C217.135995,46.9039986 216.240004,46.456003 215.472,45.848 C214.703996,45.239997 214.104002,44.4720046 213.672,43.544 C213.239998,42.6159954 213.024,41.5120064 213.024,40.232 C213.024,38.823993 213.271998,37.6640046 213.768,36.752 C214.264002,35.8399954 214.903996,35.1120027 215.688,34.568 C216.472004,34.0239973 217.367995,33.6160014 218.376,33.344 C219.384005,33.0719986 220.399995,32.8560008 221.424,32.696 C222.448005,32.5359992 223.455995,32.4080005 224.448,32.312 C225.440005,32.2159995 226.319996,32.072001 227.088,31.88 C227.856004,31.687999 228.463998,31.4080018 228.912,31.04 C229.360002,30.6719982 229.568,30.1360035 229.536,29.432 C229.536,28.6959963 229.416001,28.1120022 229.176,27.68 C228.935999,27.2479978 228.616002,26.9120012 228.216,26.672 C227.815998,26.4319988 227.352003,26.2720004 226.824,26.192 C226.295997,26.1119996 225.728003,26.072 225.12,26.072 C223.775993,26.072 222.720004,26.3599971 221.952,26.936 C221.183996,27.5120029 220.736001,28.4719933 220.608,29.816 L213.792,29.816 Z M229.536,34.856 C229.247999,35.1120013 228.888002,35.3119993 228.456,35.456 C228.023998,35.6000007 227.560002,35.7199995 227.064,35.816 C226.567998,35.9120005 226.048003,35.9919997 225.504,36.056 C224.959997,36.1200003 224.416003,36.1999995 223.872,36.296 C223.359997,36.3920005 222.856002,36.5199992 222.36,36.68 C221.863998,36.8400008 221.432002,37.0559986 221.064,37.328 C220.695998,37.6000014 220.400001,37.9439979 220.176,38.36 C219.951999,38.7760021 219.84,39.3039968 219.84,39.944 C219.84,40.552003 219.951999,41.0639979 220.176,41.48 C220.400001,41.8960021 220.703998,42.2239988 221.088,42.464 C221.472002,42.7040012 221.919997,42.8719995 222.432,42.968 C222.944003,43.0640005 223.471997,43.112 224.016,43.112 C225.360007,43.112 226.399996,42.8880022 227.136,42.44 C227.872004,41.9919978 228.415998,41.4560031 228.768,40.832 C229.120002,40.2079969 229.336,39.5760032 229.416,38.936 C229.496,38.2959968 229.536,37.7840019 229.536,37.4 L229.536,34.856 Z M241.632,22.184 L241.632,47 L248.448,47 L248.448,35.816 C248.448,34.6959944 248.559999,33.6560048 248.784,32.696 C249.008001,31.7359952 249.383997,30.8960036 249.912,30.176 C250.440003,29.4559964 251.135996,28.8880021 252,28.472 C252.864004,28.0559979 253.919994,27.848 255.168,27.848 C255.584002,27.848 256.015998,27.8719998 256.464,27.92 C256.912002,27.9680002 257.295998,28.0239997 257.616,28.088 L257.616,21.752 C257.071997,21.5919992 256.576002,21.512 256.128,21.512 C255.263996,21.512 254.432004,21.6399987 253.632,21.896 C252.831996,22.1520013 252.080004,22.5119977 251.376,22.976 C250.671996,23.4400023 250.048003,23.9999967 249.504,24.656 C248.959997,25.3120033 248.528002,26.0239962 248.208,26.792 L248.112,26.792 L248.112,22.184 L241.632,22.184 Z M260.928,12.728 L260.928,47 L267.744,47 L267.744,38.456 L270.384,35.912 L277.2,47 L285.456,47 L275.04,31.304 L284.4,22.184 L276.336,22.184 L267.744,31.112 L267.744,12.728 L260.928,12.728 Z M304.56,31.928 C304.239998,30.1999914 303.672004,28.8880045 302.856,27.992 C302.039996,27.0959955 300.800008,26.648 299.136,26.648 C298.047995,26.648 297.144004,26.8319982 296.424,27.2 C295.703996,27.5680018 295.128002,28.0239973 294.696,28.568 C294.263998,29.1120027 293.960001,29.687997 293.784,30.296 C293.607999,30.904003 293.504,31.4479976 293.472,31.928 L304.56,31.928 Z M293.472,36.248 C293.568,38.456011 294.127995,40.055995 295.152,41.048 C296.176005,42.040005 297.64799,42.536 299.568,42.536 C300.944007,42.536 302.127995,42.1920034 303.12,41.504 C304.112005,40.8159966 304.719999,40.0880038 304.944,39.32 L310.944,39.32 C309.983995,42.2960149 308.51201,44.4239936 306.528,45.704 C304.54399,46.9840064 302.144014,47.624 299.328,47.624 C297.37599,47.624 295.616008,47.3120031 294.048,46.688 C292.479992,46.0639969 291.152005,45.1760058 290.064,44.024 C288.975995,42.8719942 288.136003,41.496008 287.544,39.896 C286.951997,38.295992 286.656,36.5360096 286.656,34.616 C286.656,32.7599907 286.959997,31.032008 287.568,29.432 C288.176003,27.831992 289.039994,26.4480058 290.16,25.28 C291.280006,24.1119942 292.615992,23.1920034 294.168,22.52 C295.720008,21.8479966 297.439991,21.512 299.328,21.512 C301.440011,21.512 303.279992,21.9199959 304.848,22.736 C306.416008,23.5520041 307.703995,24.6479931 308.712,26.024 C309.720005,27.4000069 310.447998,28.9679912 310.896,30.728 C311.344002,32.4880088 311.504001,34.3279904 311.376,36.248 L293.472,36.248 Z M324.048,22.184 L324.048,14.744 L317.232,14.744 L317.232,22.184 L313.104,22.184 L313.104,26.744 L317.232,26.744 L317.232,41.384 C317.232,42.6320062 317.439998,43.6399962 317.856,44.408 C318.272002,45.1760038 318.839996,45.7679979 319.56,46.184 C320.280004,46.6000021 321.111995,46.8799993 322.056,47.024 C323.000005,47.1680007 323.999995,47.24 325.056,47.24 C325.728003,47.24 326.415996,47.2240002 327.12,47.192 C327.824004,47.1599998 328.463997,47.0960005 329.04,47 L329.04,41.72 C328.719998,41.7840003 328.384002,41.8319998 328.032,41.864 C327.679998,41.8960002 327.312002,41.912 326.928,41.912 C325.775994,41.912 325.008002,41.7200019 324.624,41.336 C324.239998,40.9519981 324.048,40.1840058 324.048,39.032 L324.048,26.744 L329.04,26.744 L329.04,22.184 L324.048,22.184 Z"></path>
            </g>
            <g id="en-kalitesi-en-ucuzu" transform="translate(1.000000, 61.000000)" fill="#FFFFFF">
                <path d="M12.792,13.592 C12.7706666,12.8239962 12.6373346,12.0880035 12.392,11.384 C12.1466654,10.6799965 11.8000022,10.0560027 11.352,9.512 C10.9039978,8.96799728 10.3600032,8.53066832 9.72,8.2 C9.0799968,7.86933168 8.35467072,7.704 7.544,7.704 C6.71199584,7.704 5.9760032,7.86933168 5.336,8.2 C4.6959968,8.53066832 4.15200224,8.96799728 3.704,9.512 C3.25599776,10.0560027 2.898668,10.6853298 2.632,11.4 C2.365332,12.1146702 2.18933376,12.8453296 2.104,13.592 L12.792,13.592 Z M2.104,15.288 C2.104,16.013337 2.20533232,16.7653294 2.408,17.544 C2.61066768,18.3226706 2.93599776,19.0213302 3.384,19.64 C3.83200224,20.2586698 4.39732992,20.7706646 5.08,21.176 C5.76267008,21.5813354 6.5839952,21.784 7.544,21.784 C9.01600736,21.784 10.1679958,21.4000038 11,20.632 C11.8320042,19.8639962 12.4079984,18.8400064 12.728,17.56 L14.744,17.56 C14.3173312,19.4373427 13.533339,20.8879949 12.392,21.912 C11.250661,22.9360051 9.63467712,23.448 7.544,23.448 C6.24266016,23.448 5.11733808,23.218669 4.168,22.76 C3.21866192,22.301331 2.44533632,21.672004 1.848,20.872 C1.25066368,20.071996 0.80800144,19.1440053 0.52,18.088 C0.23199856,17.0319947 0.088,15.9173392 0.088,14.744 C0.088,13.6559946 0.23199856,12.5893386 0.52,11.544 C0.80800144,10.4986614 1.25066368,9.56533744 1.848,8.744 C2.44533632,7.92266256 3.21866192,7.26133584 4.168,6.76 C5.11733808,6.25866416 6.24266016,6.008 7.544,6.008 C8.86667328,6.008 9.99732864,6.274664 10.936,6.808 C11.8746714,7.341336 12.6373304,8.03999568 13.224,8.904 C13.8106696,9.76800432 14.2319987,10.7599944 14.488,11.88 C14.7440013,13.0000056 14.8506669,14.1359942 14.808,15.288 L2.104,15.288 Z M17.496,6.488 L17.496,23 L19.512,23 L19.512,13.368 C19.5333334,12.5573293 19.6666654,11.8053368 19.912,11.112 C20.1573346,10.4186632 20.4986645,9.82133584 20.936,9.32 C21.3733355,8.81866416 21.9066635,8.42400144 22.536,8.136 C23.1653365,7.84799856 23.8853293,7.704 24.696,7.704 C25.5066707,7.704 26.1839973,7.83199872 26.728,8.088 C27.2720027,8.34400128 27.7039984,8.69599776 28.024,9.144 C28.3440016,9.59200224 28.5679994,10.119997 28.696,10.728 C28.8240006,11.336003 28.888,11.9919965 28.888,12.696 L28.888,23 L30.904,23 L30.904,12.376 C30.904,11.3946618 30.808001,10.5093373 30.616,9.72 C30.423999,8.93066272 30.0933357,8.26400272 29.624,7.72 C29.1546643,7.17599728 28.5306706,6.75466816 27.752,6.456 C26.9733294,6.15733184 26.0080058,6.008 24.856,6.008 C23.6826608,6.008 22.6053382,6.31199696 21.624,6.92 C20.6426618,7.52800304 19.9600019,8.33332832 19.576,9.336 L19.512,9.336 L19.512,6.488 L17.496,6.488 Z M43.608,0.152 L43.608,23 L45.624,23 L45.624,16.728 L48.888,14.008 L55.416,23 L57.944,23 L50.424,12.6 L57.464,6.488 L54.776,6.488 L45.624,14.488 L45.624,0.152 L43.608,0.152 Z M59.416,11.544 C59.4800003,10.5839952 59.682665,9.75200352 60.024,9.048 C60.365335,8.34399648 60.8293304,7.76800224 61.416,7.32 C62.0026696,6.87199776 62.6906627,6.5413344 63.48,6.328 C64.2693373,6.1146656 65.1439952,6.008 66.104,6.008 C66.829337,6.008 67.554663,6.07733264 68.28,6.216 C69.005337,6.35466736 69.6559971,6.61599808 70.232,7 C70.8080029,7.38400192 71.2773315,7.9226632 71.64,8.616 C72.0026685,9.3093368 72.184,10.2106611 72.184,11.32 L72.184,20.088 C72.184,20.8986707 72.5786627,21.304 73.368,21.304 C73.6026678,21.304 73.815999,21.2613338 74.008,21.176 L74.008,22.872 C73.7733322,22.9146669 73.5653342,22.9466666 73.384,22.968 C73.2026658,22.9893334 72.9733347,23 72.696,23 C72.1839974,23 71.7733349,22.9306674 71.464,22.792 C71.1546651,22.6533326 70.9146675,22.4560013 70.744,22.2 C70.5733325,21.9439987 70.4613336,21.6400018 70.408,21.288 C70.3546664,20.9359982 70.328,20.5466688 70.328,20.12 L70.264,20.12 C69.9013315,20.653336 69.5333352,21.1279979 69.16,21.544 C68.7866648,21.9600021 68.370669,22.3066653 67.912,22.584 C67.453331,22.8613347 66.9306696,23.0746659 66.344,23.224 C65.7573304,23.3733341 65.0586707,23.448 64.248,23.448 C63.4799962,23.448 62.7600034,23.3573342 62.088,23.176 C61.4159966,22.9946658 60.8293358,22.7066686 60.328,22.312 C59.8266642,21.9173314 59.4320014,21.416003 59.144,20.808 C58.8559986,20.199997 58.712,19.4800042 58.712,18.648 C58.712,17.4959942 58.9679974,16.5946699 59.48,15.944 C59.9920026,15.2933301 60.6693291,14.797335 61.512,14.456 C62.3546709,14.114665 63.3039947,13.8746674 64.36,13.736 C65.4160053,13.5973326 66.4879946,13.4640006 67.576,13.336 C68.0026688,13.2933331 68.3759984,13.2400003 68.696,13.176 C69.0160016,13.1119997 69.2826656,13.0000008 69.496,12.84 C69.7093344,12.6799992 69.8746661,12.4613347 69.992,12.184 C70.1093339,11.9066653 70.168,11.5440022 70.168,11.096 C70.168,10.4133299 70.0560011,9.85333552 69.832,9.416 C69.6079989,8.97866448 69.2986686,8.63200128 68.904,8.376 C68.5093314,8.11999872 68.0506693,7.94400048 67.528,7.848 C67.0053307,7.75199952 66.4453363,7.704 65.848,7.704 C64.5679936,7.704 63.5226707,8.00799696 62.712,8.616 C61.9013293,9.22400304 61.4746669,10.1999933 61.432,11.544 L59.416,11.544 Z M70.168,13.976 L70.104,13.976 C69.9759994,14.2106678 69.7306685,14.3813328 69.368,14.488 C69.0053315,14.5946672 68.6853347,14.6693331 68.408,14.712 C67.5546624,14.8613341 66.6746712,14.9946661 65.768,15.112 C64.8613288,15.2293339 64.0346704,15.4053322 63.288,15.64 C62.5413296,15.8746678 61.9280024,16.2106645 61.448,16.648 C60.9679976,17.0853355 60.728,17.7093293 60.728,18.52 C60.728,19.0320026 60.8293323,19.4853314 61.032,19.88 C61.2346677,20.2746686 61.506665,20.6159986 61.848,20.904 C62.189335,21.1920014 62.5839978,21.4106659 63.032,21.56 C63.4800022,21.7093341 63.9386643,21.784 64.408,21.784 C65.1760038,21.784 65.9119965,21.6666678 66.616,21.432 C67.3200035,21.1973322 67.9333307,20.8560022 68.456,20.408 C68.9786693,19.9599978 69.3946651,19.4160032 69.704,18.776 C70.0133349,18.1359968 70.168,17.4106707 70.168,16.6 L70.168,13.976 Z M76.248,0.152 L76.248,23 L78.264,23 L78.264,0.152 L76.248,0.152 Z M82.168,0.152 L82.168,3.384 L84.184,3.384 L84.184,0.152 L82.168,0.152 Z M82.168,6.488 L82.168,23 L84.184,23 L84.184,6.488 L82.168,6.488 Z M91.256,6.488 L91.256,1.528 L89.24,1.528 L89.24,6.488 L86.36,6.488 L86.36,8.184 L89.24,8.184 L89.24,19.48 C89.2186666,20.888007 89.474664,21.8533307 90.008,22.376 C90.541336,22.8986693 91.4799933,23.16 92.824,23.16 C93.1226682,23.16 93.4213318,23.1493334 93.72,23.128 C94.0186682,23.1066666 94.3173318,23.096 94.616,23.096 L94.616,21.4 C94.0399971,21.4640003 93.4640029,21.496 92.888,21.496 C92.162663,21.4533331 91.7093342,21.2453352 91.528,20.872 C91.3466658,20.4986648 91.256,19.9813366 91.256,19.32 L91.256,8.184 L94.616,8.184 L94.616,6.488 L91.256,6.488 Z M109.4,13.592 C109.378667,12.8239962 109.245335,12.0880035 109,11.384 C108.754665,10.6799965 108.408002,10.0560027 107.96,9.512 C107.511998,8.96799728 106.968003,8.53066832 106.328,8.2 C105.687997,7.86933168 104.962671,7.704 104.152,7.704 C103.319996,7.704 102.584003,7.86933168 101.944,8.2 C101.303997,8.53066832 100.760002,8.96799728 100.312,9.512 C99.8639978,10.0560027 99.506668,10.6853298 99.24,11.4 C98.973332,12.1146702 98.7973338,12.8453296 98.712,13.592 L109.4,13.592 Z M98.712,15.288 C98.712,16.013337 98.8133323,16.7653294 99.016,17.544 C99.2186677,18.3226706 99.5439978,19.0213302 99.992,19.64 C100.440002,20.2586698 101.00533,20.7706646 101.688,21.176 C102.37067,21.5813354 103.191995,21.784 104.152,21.784 C105.624007,21.784 106.775996,21.4000038 107.608,20.632 C108.440004,19.8639962 109.015998,18.8400064 109.336,17.56 L111.352,17.56 C110.925331,19.4373427 110.141339,20.8879949 109,21.912 C107.858661,22.9360051 106.242677,23.448 104.152,23.448 C102.85066,23.448 101.725338,23.218669 100.776,22.76 C99.8266619,22.301331 99.0533363,21.672004 98.456,20.872 C97.8586637,20.071996 97.4160014,19.1440053 97.128,18.088 C96.8399986,17.0319947 96.696,15.9173392 96.696,14.744 C96.696,13.6559946 96.8399986,12.5893386 97.128,11.544 C97.4160014,10.4986614 97.8586637,9.56533744 98.456,8.744 C99.0533363,7.92266256 99.8266619,7.26133584 100.776,6.76 C101.725338,6.25866416 102.85066,6.008 104.152,6.008 C105.474673,6.008 106.605329,6.274664 107.544,6.808 C108.482671,7.341336 109.24533,8.03999568 109.832,8.904 C110.41867,9.76800432 110.839999,10.7599944 111.096,11.88 C111.352001,13.0000056 111.458667,14.1359942 111.416,15.288 L98.712,15.288 Z M124.024,11.32 L126.04,11.32 C125.997333,10.4239955 125.816002,9.64533664 125.496,8.984 C125.175998,8.32266336 124.744003,7.76800224 124.2,7.32 C123.655997,6.87199776 123.02667,6.5413344 122.312,6.328 C121.59733,6.1146656 120.824004,6.008 119.992,6.008 C119.266663,6.008 118.536004,6.09333248 117.8,6.264 C117.063996,6.43466752 116.397336,6.70133152 115.8,7.064 C115.202664,7.42666848 114.717335,7.90666368 114.344,8.504 C113.970665,9.10133632 113.784,9.81599584 113.784,10.648 C113.784,11.3520035 113.901332,11.9439976 114.136,12.424 C114.370668,12.9040024 114.695998,13.3093317 115.112,13.64 C115.528002,13.9706683 116.013331,14.2479989 116.568,14.472 C117.122669,14.6960011 117.730663,14.8933325 118.392,15.064 L120.984,15.64 C121.432002,15.7466672 121.874664,15.8746659 122.312,16.024 C122.749336,16.1733341 123.138665,16.3599989 123.48,16.584 C123.821335,16.8080011 124.093332,17.0853317 124.296,17.416 C124.498668,17.7466683 124.6,18.1573309 124.6,18.648 C124.6,19.2240029 124.456001,19.7093314 124.168,20.104 C123.879999,20.4986686 123.512002,20.8239987 123.064,21.08 C122.615998,21.3360013 122.130669,21.5173328 121.608,21.624 C121.085331,21.7306672 120.578669,21.784 120.088,21.784 C118.743993,21.784 117.618671,21.4373368 116.712,20.744 C115.805329,20.0506632 115.309334,19.0213402 115.224,17.656 L113.208,17.656 C113.378668,19.6826768 114.066661,21.1546621 115.272,22.072 C116.477339,22.9893379 118.050657,23.448 119.992,23.448 C120.760004,23.448 121.538663,23.3626675 122.328,23.192 C123.117337,23.0213325 123.826664,22.7386686 124.456,22.344 C125.085336,21.9493314 125.602665,21.4373365 126.008,20.808 C126.413335,20.1786635 126.616,19.4160045 126.616,18.52 C126.616,17.794663 126.477335,17.165336 126.2,16.632 C125.922665,16.098664 125.565336,15.6506685 125.128,15.288 C124.690664,14.9253315 124.189336,14.6320011 123.624,14.408 C123.058664,14.1839989 122.488003,14.0293338 121.912,13.944 L119.224,13.336 C118.882665,13.2506662 118.509335,13.1386674 118.104,13 C117.698665,12.8613326 117.325335,12.6853344 116.984,12.472 C116.642665,12.2586656 116.360001,11.9973349 116.136,11.688 C115.911999,11.3786651 115.8,11.0000022 115.8,10.552 C115.8,10.018664 115.917332,9.57066848 116.152,9.208 C116.386668,8.84533152 116.695998,8.55200112 117.08,8.328 C117.464002,8.10399888 117.885331,7.94400048 118.344,7.848 C118.802669,7.75199952 119.255998,7.704 119.704,7.704 C120.280003,7.704 120.823997,7.77333264 121.336,7.912 C121.848003,8.05066736 122.301331,8.26933184 122.696,8.568 C123.090669,8.86666816 123.405332,9.24533104 123.64,9.704 C123.874668,10.162669 124.002667,10.7013302 124.024,11.32 Z M129.56,0.152 L129.56,3.384 L131.576,3.384 L131.576,0.152 L129.56,0.152 Z M129.56,6.488 L129.56,23 L131.576,23 L131.576,6.488 L129.56,6.488 Z M156.216,13.592 C156.194667,12.8239962 156.061335,12.0880035 155.816,11.384 C155.570665,10.6799965 155.224002,10.0560027 154.776,9.512 C154.327998,8.96799728 153.784003,8.53066832 153.144,8.2 C152.503997,7.86933168 151.778671,7.704 150.968,7.704 C150.135996,7.704 149.400003,7.86933168 148.76,8.2 C148.119997,8.53066832 147.576002,8.96799728 147.128,9.512 C146.679998,10.0560027 146.322668,10.6853298 146.056,11.4 C145.789332,12.1146702 145.613334,12.8453296 145.528,13.592 L156.216,13.592 Z M145.528,15.288 C145.528,16.013337 145.629332,16.7653294 145.832,17.544 C146.034668,18.3226706 146.359998,19.0213302 146.808,19.64 C147.256002,20.2586698 147.82133,20.7706646 148.504,21.176 C149.18667,21.5813354 150.007995,21.784 150.968,21.784 C152.440007,21.784 153.591996,21.4000038 154.424,20.632 C155.256004,19.8639962 155.831998,18.8400064 156.152,17.56 L158.168,17.56 C157.741331,19.4373427 156.957339,20.8879949 155.816,21.912 C154.674661,22.9360051 153.058677,23.448 150.968,23.448 C149.66666,23.448 148.541338,23.218669 147.592,22.76 C146.642662,22.301331 145.869336,21.672004 145.272,20.872 C144.674664,20.071996 144.232001,19.1440053 143.944,18.088 C143.655999,17.0319947 143.512,15.9173392 143.512,14.744 C143.512,13.6559946 143.655999,12.5893386 143.944,11.544 C144.232001,10.4986614 144.674664,9.56533744 145.272,8.744 C145.869336,7.92266256 146.642662,7.26133584 147.592,6.76 C148.541338,6.25866416 149.66666,6.008 150.968,6.008 C152.290673,6.008 153.421329,6.274664 154.36,6.808 C155.298671,7.341336 156.06133,8.03999568 156.648,8.904 C157.23467,9.76800432 157.655999,10.7599944 157.912,11.88 C158.168001,13.0000056 158.274667,14.1359942 158.232,15.288 L145.528,15.288 Z M160.92,6.488 L160.92,23 L162.936,23 L162.936,13.368 C162.957333,12.5573293 163.090665,11.8053368 163.336,11.112 C163.581335,10.4186632 163.922664,9.82133584 164.36,9.32 C164.797336,8.81866416 165.330664,8.42400144 165.96,8.136 C166.589336,7.84799856 167.309329,7.704 168.12,7.704 C168.930671,7.704 169.607997,7.83199872 170.152,8.088 C170.696003,8.34400128 171.127998,8.69599776 171.448,9.144 C171.768002,9.59200224 171.991999,10.119997 172.12,10.728 C172.248001,11.336003 172.312,11.9919965 172.312,12.696 L172.312,23 L174.328,23 L174.328,12.376 C174.328,11.3946618 174.232001,10.5093373 174.04,9.72 C173.847999,8.93066272 173.517336,8.26400272 173.048,7.72 C172.578664,7.17599728 171.954671,6.75466816 171.176,6.456 C170.397329,6.15733184 169.432006,6.008 168.28,6.008 C167.106661,6.008 166.029338,6.31199696 165.048,6.92 C164.066662,7.52800304 163.384002,8.33332832 163,9.336 L162.936,9.336 L162.936,6.488 L160.92,6.488 Z M200.408,23 L200.408,6.488 L198.392,6.488 L198.392,15.16 C198.392,15.9920042 198.296001,16.807996 198.104,17.608 C197.911999,18.408004 197.613335,19.1173302 197.208,19.736 C196.802665,20.3546698 196.29067,20.8506648 195.672,21.224 C195.05333,21.5973352 194.306671,21.784 193.432,21.784 C191.831992,21.784 190.70667,21.4000038 190.056,20.632 C189.40533,19.8639962 189.058667,18.7333408 189.016,17.24 L189.016,6.488 L187,6.488 L187,17.208 C187,18.1893382 187.106666,19.0639962 187.32,19.832 C187.533334,20.6000038 187.869331,21.250664 188.328,21.784 C188.786669,22.317336 189.383996,22.7279986 190.12,23.016 C190.856004,23.3040014 191.746661,23.448 192.792,23.448 C194.02934,23.448 195.154662,23.1546696 196.168,22.568 C197.181338,21.9813304 197.954664,21.1333389 198.488,20.024 L198.552,20.024 L198.552,23 L200.408,23 Z M215.864,11.672 L217.88,11.672 C217.645332,9.77332384 216.914673,8.35467136 215.688,7.416 C214.461327,6.47732864 212.962676,6.008 211.192,6.008 C209.933327,6.008 208.818672,6.24266432 207.848,6.712 C206.877328,7.18133568 206.061337,7.81066272 205.4,8.6 C204.738663,9.38933728 204.237335,10.3119947 203.896,11.368 C203.554665,12.4240053 203.384,13.5493274 203.384,14.744 C203.384,15.9386726 203.554665,17.0639947 203.896,18.12 C204.237335,19.1760053 204.738663,20.0986627 205.4,20.888 C206.061337,21.6773373 206.877328,22.301331 207.848,22.76 C208.818672,23.218669 209.933327,23.448 211.192,23.448 C213.069343,23.448 214.605327,22.8880056 215.8,21.768 C216.994673,20.6479944 217.730665,19.0853434 218.008,17.08 L215.992,17.08 C215.928,17.7626701 215.757335,18.3919971 215.48,18.968 C215.202665,19.5440029 214.850669,20.0399979 214.424,20.456 C213.997331,20.8720021 213.506669,21.1973322 212.952,21.432 C212.397331,21.6666678 211.81067,21.784 211.192,21.784 C210.231995,21.784 209.389337,21.5813354 208.664,21.176 C207.938663,20.7706646 207.336002,20.2373366 206.856,19.576 C206.375998,18.9146634 206.013335,18.1626709 205.768,17.32 C205.522665,16.4773291 205.4,15.618671 205.4,14.744 C205.4,13.869329 205.522665,13.0106709 205.768,12.168 C206.013335,11.3253291 206.375998,10.5733366 206.856,9.912 C207.336002,9.25066336 207.938663,8.71733536 208.664,8.312 C209.389337,7.90666464 210.231995,7.704 211.192,7.704 C212.536007,7.704 213.58133,8.05599648 214.328,8.76 C215.07467,9.46400352 215.586665,10.4346605 215.864,11.672 Z M234.2,23 L234.2,6.488 L232.184,6.488 L232.184,15.16 C232.184,15.9920042 232.088001,16.807996 231.896,17.608 C231.703999,18.408004 231.405335,19.1173302 231,19.736 C230.594665,20.3546698 230.08267,20.8506648 229.464,21.224 C228.84533,21.5973352 228.098671,21.784 227.224,21.784 C225.623992,21.784 224.49867,21.4000038 223.848,20.632 C223.19733,19.8639962 222.850667,18.7333408 222.808,17.24 L222.808,6.488 L220.792,6.488 L220.792,17.208 C220.792,18.1893382 220.898666,19.0639962 221.112,19.832 C221.325334,20.6000038 221.661331,21.250664 222.12,21.784 C222.578669,22.317336 223.175996,22.7279986 223.912,23.016 C224.648004,23.3040014 225.538661,23.448 226.584,23.448 C227.82134,23.448 228.946662,23.1546696 229.96,22.568 C230.973338,21.9813304 231.746664,21.1333389 232.28,20.024 L232.344,20.024 L232.344,23 L234.2,23 Z M239,21.304 L249.912,7.928 L249.912,6.488 L237.304,6.488 L237.304,8.184 L247.352,8.184 L236.568,21.368 L236.568,23 L250.36,23 L250.36,21.304 L239,21.304 Z M266.2,23 L266.2,6.488 L264.184,6.488 L264.184,15.16 C264.184,15.9920042 264.088001,16.807996 263.896,17.608 C263.703999,18.408004 263.405335,19.1173302 263,19.736 C262.594665,20.3546698 262.08267,20.8506648 261.464,21.224 C260.84533,21.5973352 260.098671,21.784 259.224,21.784 C257.623992,21.784 256.49867,21.4000038 255.848,20.632 C255.19733,19.8639962 254.850667,18.7333408 254.808,17.24 L254.808,6.488 L252.792,6.488 L252.792,17.208 C252.792,18.1893382 252.898666,19.0639962 253.112,19.832 C253.325334,20.6000038 253.661331,21.250664 254.12,21.784 C254.578669,22.317336 255.175996,22.7279986 255.912,23.016 C256.648004,23.3040014 257.538661,23.448 258.584,23.448 C259.82134,23.448 260.946662,23.1546696 261.96,22.568 C262.973338,21.9813304 263.746664,21.1333389 264.28,20.024 L264.344,20.024 L264.344,23 L266.2,23 Z"></path>
            </g>
        </g>
    </g>
</svg>