<?xml version="1.0" encoding="UTF-8" standalone="no"?>
<svg width="516px" height="180px" viewBox="0 0 516 180" version="1.1" xmlns="http://www.w3.org/2000/svg" xmlns:xlink="http://www.w3.org/1999/xlink">
    <!-- Generator: Sketch 44 (41411) - http://www.bohemiancoding.com/sketch -->
    <title>cisa_logo</title>
    <desc>Created with Sketch.</desc>
    <defs></defs>
    <g id="Page-1" stroke="none" stroke-width="1" fill="none" fill-rule="evenodd">
        <g id="cisa_logo">
            <path d="M454.8823,46.8299 C454.7743,45.8119 453.9093,45.1359 452.7903,45.2509 L450.9113,45.4499 L451.2813,48.9809 L453.1603,48.7819 C454.2793,48.6639 454.9863,47.8479 454.8823,46.8299 Z M457.2983,53.7119 L455.6773,53.8819 L452.9303,50.0129 L451.4063,50.1729 L451.8393,54.2869 L450.4443,54.4329 L449.3853,44.3549 L452.8113,43.9929 C454.5613,43.8079 456.1233,44.9789 456.3043,46.6799 C456.4583,48.1509 455.6423,49.1619 454.4363,49.6749 L457.2983,53.7119 Z M460.6553,48.2769 C460.2013,43.9609 456.3533,40.7959 452.0863,41.2449 C447.8233,41.6919 444.7383,45.5849 445.1943,49.9009 C445.6473,54.2209 449.4683,57.3859 453.7353,56.9359 C458.0023,56.4899 461.1083,52.5919 460.6553,48.2769 Z M462.1013,48.1269 C462.6383,53.2059 458.9573,57.7479 453.8783,58.2849 C448.7993,58.8149 444.2533,55.1339 443.7203,50.0579 C443.1863,44.9789 446.8683,40.4329 451.9433,39.8999 C457.0223,39.3629 461.5683,43.0479 462.1013,48.1269 Z" id="Fill-1" fill="#8B8E8D"></path>
            <path d="M135.5314,154.2412 C118.9834,171.8242 102.0864,179.0652 77.9534,179.0652 C64.3504,179.0652 50.8284,176.1752 38.9624,169.6772 L54.8544,141.0012 C61.3734,145.3662 69.2244,147.6912 77.9534,147.6912 C91.7434,147.6912 100.3644,143.2082 111.3974,131.1392 L135.5314,154.2412 Z" id="Fill-3" fill="#E5712A"></path>
            <path d="M16.6464,149.9822 C6.4184,135.8672 0.0324,116.0672 0.0324,89.4202 C0.0324,23.9112 38.6504,0.1222 77.9544,0.1222 C102.0884,0.1222 118.9814,7.0172 135.5334,24.6012 L111.3994,48.0482 C100.3664,35.9792 91.7454,31.5002 77.9544,31.5002 C64.5054,31.5002 53.1304,37.0152 45.5454,47.0122 C37.9594,56.6652 35.1984,69.0792 35.1984,89.4202 C35.1984,98.7342 35.7774,106.4592 37.1334,113.0202 L16.6464,149.9822 Z" id="Fill-5" fill="#A4ABAC"></path>
            <polygon id="Fill-7" fill="#A4ABAC" points="158.944 176.995 194.114 176.995 194.114 37.938 158.944 37.938"></polygon>
            <path d="M361.9719,123.5546 C361.9719,92.5256 342.6629,77.0096 309.9049,74.2486 L282.3239,71.8366 C263.7079,70.1146 258.1899,62.1836 258.1899,51.8406 C258.1899,38.7366 268.8779,29.4286 289.9089,29.4286 C306.4609,29.4286 321.9769,32.8766 333.0069,42.1846 L355.0729,19.7726 C338.8699,5.6406 316.4589,0.1226 290.2579,0.1226 C253.7069,0.1226 224.4039,19.4316 224.4039,53.5626 C224.4039,84.2496 243.3679,99.0756 276.1219,101.8336 L304.0479,104.2456 C320.9419,105.6266 327.4919,113.2116 327.4919,124.9356 C327.4919,141.4836 310.5989,149.0686 289.2219,149.0686 C271.9839,149.0686 253.0199,145.2756 238.8849,130.7956 L215.7829,153.8966 C236.4689,174.2376 260.6059,179.0656 289.2219,179.0656 C330.9389,179.0656 361.9719,160.1016 361.9719,123.5546" id="Fill-9" fill="#A4ABAC"></path>
            <path d="M449.6091,30.3859 C447.3921,30.2079 445.0421,30.1179 442.5601,30.1179 C423.2511,30.1179 413.9441,34.6009 404.2871,47.0139 L381.1891,25.2929 C397.7371,5.9839 414.9751,0.1239 443.9411,0.1239 C451.7561,0.1239 458.9411,0.6649 465.4881,1.7419 L449.6091,30.3859 Z" id="Fill-10" fill="#E5712A"></path>
            <polygon id="Fill-11" fill="#A4ABAC" points="159.341 30.799 194.511 30.799 194.511 2.496 159.341 2.496"></polygon>
            <path d="M480.8297,113.9 L480.8297,99.764 L439.7997,99.764 C419.1167,99.764 408.4257,109.072 408.4257,124.933 C408.4257,140.795 418.4267,149.757 440.4927,149.757 C453.9347,149.757 463.9367,148.722 473.2437,139.759 C478.4177,134.59 480.8297,126.314 480.8297,113.9 L480.8297,113.9 Z M515.9997,176.997 L481.5197,176.997 L481.5197,161.136 C468.7647,173.891 456.6957,179.064 434.9747,179.064 C413.2537,179.064 398.7727,173.891 388.0847,163.206 C379.1187,153.895 374.2907,140.449 374.2907,125.624 C374.2907,96.317 394.6347,75.286 434.6297,75.286 L480.8297,75.286 L480.8297,62.872 C480.8297,54.621 479.2887,47.959 475.9287,42.852 L493.1767,11.736 C508.3687,21.636 515.9997,37.825 515.9997,60.115 L515.9997,176.997 Z" id="Fill-12" fill="#A4ABAC"></path>
        </g>
    </g>
</svg>