<?xml version="1.0" encoding="UTF-8" standalone="no"?>
<svg width="351px" height="354px" viewBox="0 0 351 354" version="1.1" xmlns="http://www.w3.org/2000/svg" xmlns:xlink="http://www.w3.org/1999/xlink">
    <!-- Generator: Sketch 48.1 (47250) - http://www.bohemiancoding.com/sketch -->
    <title>reddit svg icon</title>
    <desc>Created with Sketch.</desc>
    <defs></defs>
    <g id="Desktop-HD" stroke="none" stroke-width="1" fill="none" fill-rule="evenodd" transform="translate(-265.000000, -179.000000)">
        <g id="Group-3" transform="translate(250.000000, 179.000000)" fill-rule="nonzero">
            <g id="reddit-svg-icon" transform="translate(15.000000, 0.000000)">
                <path d="M350.26998,176.718489 C347.314115,247.588867 316.277535,301.568588 252.937575,334.646123 C189.175348,367.934791 109.085487,355.900199 56.7244533,306.354274 C21.5355865,273.135984 2.81510934,232.176143 0.563021869,183.756262 C-3.44850895,96.3471173 57.850497,18.4389662 143.78171,3.16699801 C200.858052,-7.03777336 251.53002,7.9526839 294.038171,47.3642147 C329.367793,80.0898608 347.595626,121.190457 349.847714,169.328827 C349.988469,171.792048 350.129225,174.255268 350.26998,176.718489 Z M175.45169,13.9347913 C88.0425447,13.5829026 15.2015905,84.7347913 14.1459245,174.536779 C13.0198807,266.168588 86.1423459,338.376143 173.481113,339.361431 C262.08668,340.34672 335.842545,268.561431 336.335189,178.196421 C336.757455,86.9868787 264.901789,13.9347913 175.45169,13.9347913 Z" id="Shape" fill="#FE4704"></path>
                <path d="M133.576938,194.594433 C129.002386,192.623857 124.427833,190.582903 120.275547,187.908549 C110.070775,181.433797 101.695825,173.340358 97.5435388,161.587276 C95.8544732,156.871968 95.2914513,152.015905 95.7840954,147.089463 C95.9248509,145.259642 95.64334,143.992843 93.9542744,142.655666 C85.7904573,135.969781 84.4532803,124.287078 90.6465209,115.84175 C96.7693837,107.466799 108.311332,105.355467 117.178926,111.196819 C118.867992,112.322863 119.994036,112.322863 121.753479,111.337575 C135.899404,103.10338 151.312127,99.2326044 167.569384,98.6695825 C170.243738,98.5992048 171.440159,97.8250497 172.214314,95.2210736 C175.45169,84.4532803 178.900199,73.8262425 182.27833,63.128827 C183.545129,59.187674 184.319284,58.7654076 188.401193,59.6803181 C196.846521,61.6508946 205.291849,63.4807157 213.666799,65.5920477 C216.059642,66.1550696 217.256064,65.9439364 218.663618,63.6918489 C222.464016,57.6393638 230.205567,55.1057654 236.821074,57.2874751 C243.647714,59.5395626 248.363022,65.9439364 248.222266,72.9817097 C248.081511,80.0898608 243.295825,86.3534791 236.469185,88.3944334 C227.179324,91.139165 217.537575,85.0163022 216.059642,75.3745527 C215.778131,73.4039761 215.074354,72.6298211 213.174155,72.2779324 C205.502982,70.5888668 197.902187,68.688668 190.301392,66.9292247 C189.175348,66.6477137 188.19006,66.1550696 187.627038,67.9848907 C184.530417,78.1192843 181.222664,88.2536779 177.985288,98.4584493 C195.087078,99.4437376 211.133201,103.244135 225.631014,112.252485 C227.531213,113.448907 228.164612,111.900596 229.220278,111.267197 C237.524851,105.918489 247.8,107.044533 254.556262,114.223062 C260.960636,120.979324 262.157058,132.099006 256.034195,138.925646 C252.022664,143.429821 250.403976,147.582107 250.052087,153.634592 C249.207555,166.865606 241.395626,176.507356 231.190855,184.389662 C225.490258,188.753082 219.22664,192.060835 212.540755,194.664811 C212.540755,195.438966 213.0334,195.650099 213.596421,195.93161 C234.568986,208.810736 236.750696,241.817893 217.67833,257.371372 C216.200398,258.567793 214.652087,259.553082 212.963022,260.467992 C206.417893,264.057256 206.347515,263.986879 204.095427,271.658052 C208.529225,271.869185 212.892644,272.572962 216.833797,274.613917 C224.364215,278.484692 228.305368,286.085487 226.616302,293.404771 C226.05328,295.93837 224.786481,297.205169 222.04175,297.205169 C189.456859,297.134791 156.80159,297.134791 124.2167,297.205169 C121.471968,297.205169 120.205169,295.93837 119.571769,293.475149 C117.812326,286.366998 121.823857,278.55507 129.283897,274.684294 C133.22505,272.64334 137.447714,271.869185 142.022266,271.728429 C141.107356,269.124453 140.05169,266.661233 139.347913,264.127634 C138.996024,262.860835 138.081113,262.508946 137.095825,262.157058 C124.850099,257.44175 118.30497,247.940755 116.264016,235.554274 C113.519284,218.945129 118.234592,205.010338 133.154672,195.579722 C133.365805,195.298211 133.365805,195.0167 133.576938,194.594433 Z M174.607157,104.933201 C162.642942,105.073956 152.719682,106.270378 143.007555,109.226243 C130.40994,113.097018 118.867992,118.93837 110.211531,129.283897 C99.7252485,141.881511 99.5141153,156.871968 109.578131,169.821471 C114.434195,176.014712 120.48668,180.73002 127.454076,184.319284 C150.537972,196.072366 174.677535,197.691054 199.520875,191.568191 C212.963022,188.260437 225.067992,182.419085 234.498608,171.932803 C242.169781,163.417097 245.688668,153.564215 242.592048,142.092644 C240.33996,133.788072 235.06163,127.31332 228.375746,122.105368 C212.118489,109.437376 193.046123,105.425845 174.607157,104.933201 Z M206.769781,220.282306 C206.699404,212.822266 206.136382,206.206759 205.432604,199.520875 C205.221471,197.691054 204.728827,196.987276 202.828628,197.691054 C201.069185,198.324453 199.239364,198.74672 197.409543,199.098608 C179.463221,202.75825 161.587276,202.687873 143.852087,197.831809 C142.022266,197.339165 140.896223,196.987276 140.544334,199.802386 C138.292247,217.748708 138.996024,235.554274 143.218688,253.219085 C145.893042,264.409145 149.97495,275.106561 157.505368,284.114911 C160.953877,288.267197 164.824652,291.223062 170.736382,290.308151 C173.26998,289.956262 175.873956,290.097018 178.477932,290.308151 C180.870775,290.448907 182.770974,289.604374 184.530417,288.056064 C189.73837,283.622266 193.398012,278.062425 196.283499,272.00994 C204.095427,255.400795 206.417893,237.665606 206.769781,220.282306 Z M212.540755,202.969384 C214.159443,220.704573 213.314911,237.454473 209.373757,254.767396 C218.31173,249.489066 222.534394,241.958648 223.660437,232.809543 C225.067992,221.40835 222.252883,211.273956 212.540755,202.969384 Z M132.662028,204.095427 C131.887873,204.02505 131.465606,204.869583 130.972962,205.432604 C118.797614,217.256064 119.501392,240.762227 132.450895,251.741153 C133.295427,252.44493 134.210338,253.922863 135.336382,253.219085 C136.603181,252.44493 135.829026,250.89662 135.617893,249.700199 C133.576938,239.847316 132.662028,229.853678 132.732406,219.719284 C132.662028,214.58171 132.662028,209.373757 132.662028,204.095427 Z M241.536382,72.7705765 C241.536382,67.2811133 237.454473,63.2695825 232.035388,63.2695825 C226.827435,63.2695825 222.604771,67.3514911 222.464016,72.4890656 C222.32326,77.6266402 226.757058,82.2011928 231.96501,82.2715706 C237.24334,82.412326 241.536382,78.1192843 241.536382,72.7705765 Z M192.060835,290.308151 C201.069185,290.308151 209.233002,290.167396 217.396819,290.378529 C220.915706,290.448907 220.704573,289.041352 219.719284,286.648509 C217.04493,280.033002 208.106958,277.077137 200.858052,278.906958 C200.365408,279.047714 199.872763,279.540358 199.591252,280.033002 C197.550298,283.411133 195.227833,286.578131 192.060835,290.308151 Z M153.634592,290.308151 C151.382505,287.211531 149.200795,284.818688 147.793241,282.073956 C146.24493,278.977336 143.922465,278.343936 140.9666,278.414314 C139.347913,278.484692 137.658847,278.55507 136.110537,278.977336 C131.395229,280.314513 127.524453,282.777734 126.046521,287.774553 C125.694632,288.970974 125.342744,290.308151 127.594831,290.308151 C136.110537,290.237773 144.626243,290.308151 153.634592,290.308151 Z M240.269583,114.57495 C238.439761,114.434195 236.750696,114.856461 235.132008,115.489861 C233.091054,116.264016 232.59841,117.038171 234.639364,118.727237 C240.199205,123.301789 244.562624,128.932008 247.377734,135.617893 C248.222266,137.588469 248.855666,137.658847 250.122465,136.040159 C253.500596,131.817495 254.345129,127.242942 252.093042,122.316501 C249.840954,117.249304 245.829423,114.645328 240.269583,114.57495 Z M97.9658052,137.025447 C101.273559,128.791252 106.763022,122.246123 113.66004,116.686282 C106.974155,113.02664 100.006759,114.363817 96.0656064,119.712525 C92.0540755,125.061233 92.7578529,132.310139 97.9658052,137.025447 Z" id="Shape" fill="#060606"></path>
                <path d="M174.607157,104.933201 C192.975746,105.425845 212.048111,109.437376 228.446123,122.246123 C235.132008,127.454076 240.410338,133.928827 242.662425,142.2334 C245.759046,153.634592 242.240159,163.557853 234.568986,172.073559 C225.13837,182.489463 212.963022,188.401193 199.591252,191.708946 C174.747913,197.761431 150.537972,196.213121 127.524453,184.46004 C120.557058,180.941153 114.434195,176.225845 109.648509,169.962227 C99.584493,157.012724 99.7956262,142.022266 110.281909,129.424652 C118.93837,119.079125 130.40994,113.237773 143.077932,109.366998 C152.719682,106.270378 162.71332,105.073956 174.607157,104.933201 Z M159.194433,140.544334 C159.194433,133.788072 153.916103,128.509742 147.159841,128.580119 C140.685089,128.650497 135.336382,133.928827 135.266004,140.403579 C135.195626,146.948708 140.685089,152.508549 147.230219,152.578926 C153.845726,152.649304 159.194433,147.300596 159.194433,140.544334 Z M187.55666,140.192445 C187.345527,146.87833 192.623857,152.367793 199.239364,152.578926 C205.784493,152.79006 211.344334,147.370974 211.555467,140.755467 C211.696223,134.351093 206.48827,128.86163 200.013519,128.580119 C193.257256,128.368986 187.697416,133.576938 187.55666,140.192445 Z M173.481113,183.052485 C175.592445,183.052485 177.703777,183.193241 179.815109,183.052485 C187.275149,182.489463 194.312922,180.73002 200.224652,175.733201 C202.054473,174.184891 203.039761,172.35507 201.491451,170.314115 C199.802386,168.132406 197.831809,168.765805 196.072366,170.454871 C194.172167,172.284692 191.92008,173.692247 189.456859,174.325646 C175.733201,177.703777 162.220676,179.111332 149.97495,169.821471 C148.42664,168.695427 146.87833,168.62505 145.541153,169.962227 C144.063221,171.440159 144.063221,173.129225 145.470775,174.677535 C147.159841,176.507356 149.200795,177.844533 151.382505,179.040954 C158.279523,182.559841 165.80994,183.263618 173.481113,183.052485 Z" id="Shape" fill="#FDFCFC"></path>
                <path d="M206.769781,220.282306 C206.417893,237.665606 204.095427,255.471173 196.213121,272.080318 C193.327634,278.132803 189.667992,283.692644 184.46004,288.126441 C182.700596,289.604374 180.800398,290.519284 178.407555,290.378529 C175.803579,290.237773 173.199602,290.02664 170.666004,290.378529 C164.754274,291.293439 160.883499,288.337575 157.43499,284.185288 C149.904573,275.176938 145.822664,264.479523 143.14831,253.289463 C138.925646,235.69503 138.221869,217.889463 140.473956,199.872763 C140.825845,197.057654 141.951889,197.409543 143.78171,197.902187 C161.516899,202.687873 179.392843,202.828628 197.339165,199.168986 C199.168986,198.817097 200.998807,198.394831 202.75825,197.761431 C204.658449,197.057654 205.151093,197.761431 205.362227,199.591252 C206.136382,206.136382 206.699404,212.822266 206.769781,220.282306 Z" id="Shape" fill="#FDFCFC"></path>
                <path d="M212.540755,202.969384 C222.252883,211.344334 225.067992,221.40835 223.660437,232.809543 C222.534394,241.958648 218.382107,249.489066 209.373757,254.767396 C213.314911,237.384095 214.159443,220.704573 212.540755,202.969384 Z" id="Shape" fill="#F9F9F9"></path>
                <path d="M132.662028,204.095427 C132.662028,209.373757 132.662028,214.511332 132.662028,219.719284 C132.662028,229.7833 133.576938,239.776938 135.547515,249.700199 C135.758648,250.89662 136.532803,252.44493 135.266004,253.219085 C134.13996,253.922863 133.22505,252.44493 132.380517,251.741153 C119.431014,240.762227 118.727237,217.256064 130.902584,205.432604 C131.535984,204.869583 131.887873,204.02505 132.662028,204.095427 Z" id="Shape" fill="#F9F9F9"></path>
                <path d="M241.536382,72.7705765 C241.536382,78.1192843 237.24334,82.412326 231.894632,82.3419483 C226.68668,82.2715706 222.252883,77.6970179 222.393638,72.5594433 C222.534394,67.4218688 226.757058,63.3399602 231.96501,63.3399602 C237.454473,63.2695825 241.536382,67.3514911 241.536382,72.7705765 Z" id="Shape" fill="#F9F9F9"></path>
                <path d="M192.060835,290.308151 C195.157455,286.578131 197.550298,283.411133 199.591252,280.033002 C199.872763,279.540358 200.365408,279.047714 200.858052,278.906958 C208.106958,277.077137 217.04493,280.033002 219.719284,286.648509 C220.704573,289.041352 220.915706,290.519284 217.396819,290.378529 C209.233002,290.167396 201.069185,290.308151 192.060835,290.308151 Z" id="Shape" fill="#F9F9F9"></path>
                <path d="M153.634592,290.308151 C144.626243,290.308151 136.110537,290.237773 127.594831,290.308151 C125.413121,290.308151 125.694632,288.970974 126.046521,287.774553 C127.524453,282.777734 131.395229,280.314513 136.110537,278.977336 C137.658847,278.55507 139.347913,278.414314 140.9666,278.414314 C143.922465,278.343936 146.24493,279.047714 147.793241,282.073956 C149.200795,284.818688 151.382505,287.211531 153.634592,290.308151 Z" id="Shape" fill="#F9F9F9"></path>
                <path d="M240.269583,114.57495 C245.829423,114.645328 249.840954,117.178926 252.093042,122.246123 C254.274751,127.172565 253.500596,131.817495 250.122465,135.969781 C248.855666,137.588469 248.222266,137.518091 247.377734,135.547515 C244.562624,128.86163 240.199205,123.301789 234.639364,118.656859 C232.59841,116.967793 233.091054,116.264016 235.132008,115.419483 C236.750696,114.856461 238.439761,114.434195 240.269583,114.57495 Z" id="Shape" fill="#F9F9F9"></path>
                <path d="M97.9658052,137.025447 C92.8282306,132.239761 92.0540755,124.990855 95.9952286,119.712525 C100.006759,114.293439 106.974155,113.02664 113.589662,116.686282 C106.763022,122.246123 101.273559,128.86163 97.9658052,137.025447 Z" id="Shape" fill="#F9F9F9"></path>
                <path d="M159.194433,140.544334 C159.194433,147.230219 153.845726,152.649304 147.230219,152.578926 C140.685089,152.508549 135.195626,146.948708 135.266004,140.403579 C135.336382,133.928827 140.685089,128.650497 147.159841,128.580119 C153.916103,128.580119 159.194433,133.788072 159.194433,140.544334 Z" id="Shape" fill="#FE4704"></path>
                <path d="M187.55666,140.192445 C187.767793,133.506561 193.257256,128.368986 199.943141,128.580119 C206.48827,128.86163 211.696223,134.280716 211.485089,140.755467 C211.344334,147.370974 205.784493,152.79006 199.168986,152.578926 C192.553479,152.438171 187.345527,146.87833 187.55666,140.192445 Z" id="Shape" fill="#FE4704"></path>
                <path d="M173.481113,183.052485 C165.80994,183.333996 158.279523,182.630219 151.312127,178.970577 C149.130417,177.844533 147.089463,176.436978 145.400398,174.607157 C143.992843,173.129225 143.992843,171.369781 145.470775,169.891849 C146.807952,168.554672 148.42664,168.554672 149.904573,169.751093 C162.150298,179.111332 175.733201,177.6334 189.386481,174.255268 C191.849702,173.621869 194.101789,172.214314 196.001988,170.384493 C197.761431,168.695427 199.732008,168.062028 201.421074,170.243738 C202.969384,172.284692 202.054473,174.114513 200.154274,175.662823 C194.242545,180.659642 187.204771,182.419085 179.744732,182.982107 C177.703777,183.122863 175.592445,183.052485 173.481113,183.052485 Z" id="Shape" fill="#060606"></path>
            </g>
        </g>
    </g>
</svg>